<?xml version="1.0" encoding="UTF-8"?><svg id="Layer_2" xmlns="http://www.w3.org/2000/svg" viewBox="0 0 34 34"><g id="BG"><path d="M17,.62c-4.52,0-8.62,1.83-11.58,4.8C2.45,8.38.62,12.48.62,17s1.83,8.62,4.8,11.58,7.06,4.8,11.58,4.8,8.62-1.83,11.58-4.8c2.96-2.96,4.8-7.06,4.8-11.58s-1.83-8.62-4.8-11.58c-2.96-2.96-7.06-4.8-11.58-4.8ZM30.42,17c0,.49-.2.94-.52,1.26-.28.28-.66.46-1.08.5-.38,2.59-1.6,4.91-3.37,6.68-1.77,1.77-4.09,2.98-6.68,3.37-.04.42-.22.8-.5,1.08-.32.32-.77.52-1.26.52s-.94-.2-1.26-.52c-.28-.28-.46-.66-.5-1.08-2.59-.38-4.91-1.6-6.68-3.37-1.77-1.77-2.98-4.09-3.37-6.68-.42-.04-.8-.22-1.08-.5-.32-.32-.52-.77-.52-1.26s.2-.94.52-1.26c.28-.28.66-.46,1.08-.5.38-2.59,1.6-4.91,3.37-6.68.81-.81,1.74-1.51,2.77-2.06.25-1.09.8-2.06,1.56-2.83,1.05-1.05,2.51-1.71,4.12-1.71s3.07.65,4.12,1.71c.76.76,1.31,1.74,1.56,2.83,1.02.55,1.95,1.25,2.77,2.06,1.77,1.77,2.98,4.09,3.37,6.68.42.04.8.22,1.08.5.32.32.52.77.52,1.26Z" style="fill:#fff200; stroke-width:0px;"/><path d="M26.85,17c0-.49.2-.94.52-1.26.22-.22.51-.38.82-.46-.37-2.44-1.52-4.62-3.19-6.29-.66-.66-1.4-1.24-2.2-1.72.01.17.03.34.03.51,0,1.61-.65,3.07-1.71,4.12-1.06,1.06-2.51,1.71-4.12,1.71s-3.07-.65-4.12-1.71c-1.06-1.06-1.71-2.51-1.71-4.12,0-.17.01-.34.03-.51-.8.48-1.55,1.06-2.2,1.72-1.67,1.67-2.82,3.85-3.19,6.29.31.08.6.24.82.46.32.32.52.77.52,1.26s-.2.94-.52,1.26c-.22.22-.51.38-.82.46.37,2.44,1.52,4.62,3.19,6.29,1.67,1.67,3.85,2.82,6.29,3.19.08-.31.24-.6.46-.82.32-.32.77-.52,1.26-.52s.94.2,1.26.52c.22.22.38.51.46.82,2.44-.37,4.62-1.52,6.29-3.19,1.67-1.67,2.82-3.85,3.19-6.29-.31-.08-.6-.24-.82-.46-.32-.32-.52-.77-.52-1.26ZM23.2,17.39c-.38.38-.91.62-1.49.62-.54,0-1.02-.21-1.39-.54l-1.39,2.22-1.15,1.84c.26.11.5.26.7.46.38.38.62.91.62,1.49s-.24,1.11-.62,1.49c-.38.38-.91.62-1.49.62s-1.11-.24-1.49-.62c-.38-.38-.62-.91-.62-1.49s.24-1.11.62-1.49c.2-.2.43-.35.7-.46l-1.15-1.84-1.39-2.23c-.37.33-.86.54-1.4.54-.58,0-1.11-.24-1.49-.62-.38-.38-.62-.91-.62-1.49s.24-1.11.62-1.49c.38-.38.91-.62,1.49-.62s1.11.24,1.49.62c.38.38.62.91.62,1.49,0,.24-.05.46-.12.68h5.48c-.07-.21-.12-.44-.12-.68,0-.58.24-1.11.62-1.49.38-.38.91-.62,1.49-.62s1.11.24,1.49.62c.38.38.62.91.62,1.49s-.24,1.11-.62,1.49h0Z" style="fill:#fff200; stroke-width:0px;"/><path d="M17,0c-4.69,0-8.94,1.9-12.02,4.98C1.9,8.06,0,12.31,0,17s1.9,8.94,4.98,12.02c3.08,3.08,7.33,4.98,12.02,4.98s8.94-1.9,12.02-4.98c3.08-3.08,4.98-7.33,4.98-12.02s-1.9-8.94-4.98-12.02C25.94,1.9,21.69,0,17,0ZM28.58,28.58c-2.96,2.96-7.06,4.8-11.58,4.8s-8.62-1.83-11.58-4.8S.62,21.52.62,17s1.83-8.62,4.8-11.58C8.38,2.45,12.48.62,17,.62s8.62,1.83,11.58,4.8c2.96,2.96,4.8,7.06,4.8,11.58s-1.83,8.62-4.8,11.58Z" style="stroke-width:0px;"/><path d="M15.28,28.2c-2.44-.37-4.62-1.52-6.29-3.19-1.67-1.67-2.82-3.85-3.19-6.29-.14.04-.29.06-.44.06-.06,0-.12-.01-.18-.02.38,2.59,1.6,4.91,3.37,6.68,1.77,1.77,4.09,2.98,6.68,3.37,0-.06-.02-.12-.02-.18,0-.15.03-.3.06-.44Z" style="stroke-width:0px;"/><path d="M5.8,15.28c.37-2.44,1.52-4.62,3.19-6.29.66-.66,1.4-1.24,2.2-1.72.02-.27.07-.53.12-.78-1.02.55-1.95,1.25-2.77,2.06-1.77,1.77-2.98,4.09-3.37,6.68.06,0,.12-.02.18-.02.15,0,.3.03.44.06Z" style="stroke-width:0px;"/><path d="M25.01,8.99c1.67,1.67,2.82,3.85,3.19,6.29.14-.04.29-.06.44-.06.06,0,.12.01.18.02-.38-2.59-1.6-4.91-3.37-6.68-.81-.81-1.74-1.51-2.77-2.06.06.26.1.52.12.78.8.48,1.55,1.06,2.2,1.72Z" style="stroke-width:0px;"/><path d="M28.2,18.72c-.37,2.44-1.52,4.62-3.19,6.29-1.67,1.67-3.85,2.82-6.29,3.19.04.14.06.29.06.44,0,.06-.01.12-.02.18,2.59-.38,4.91-1.6,6.68-3.37,1.77-1.77,2.98-4.09,3.37-6.68-.06,0-.12.02-.18.02-.15,0-.3-.03-.44-.06Z" style="stroke-width:0px;"/><path d="M11.87,6.9c-.05.29-.08.58-.08.88,0,1.44.58,2.74,1.53,3.68.94.94,2.25,1.53,3.68,1.53s2.74-.58,3.68-1.53c.94-.94,1.53-2.25,1.53-3.68,0-.3-.03-.59-.08-.88-1.54-.78-3.28-1.23-5.13-1.23s-3.59.45-5.13,1.23Z" style="fill:#fff; stroke-width:0px;"/><path d="M21.94,6.12c-.26-.77-.69-1.46-1.25-2.02-.94-.94-2.25-1.53-3.68-1.53s-2.74.58-3.68,1.53c-.56.56-.99,1.25-1.25,2.02,1.51-.68,3.18-1.07,4.94-1.07s3.43.38,4.94,1.07Z" style="fill:#fff; stroke-width:0px;"/><path d="M17,5.06c-1.76,0-3.43.38-4.94,1.07-.08.25-.15.51-.2.78,1.54-.78,3.28-1.23,5.13-1.23s3.59.45,5.13,1.23c-.05-.27-.11-.53-.2-.78-1.51-.68-3.18-1.07-4.94-1.07Z" style="fill:#fff; stroke-width:0px;"/><path d="M12.88,11.91c1.05,1.06,2.51,1.71,4.12,1.71s3.07-.65,4.12-1.71c1.05-1.05,1.71-2.51,1.71-4.12,0-.17-.01-.34-.03-.51-.11-.07-.22-.13-.33-.19.03.23.05.46.05.7,0,3.05-2.47,5.52-5.52,5.52s-5.52-2.47-5.52-5.52c0-.24.02-.47.05-.7-.11.06-.22.13-.33.19-.01.17-.03.34-.03.51,0,1.61.65,3.07,1.71,4.12Z" style="stroke-width:0px;"/><path d="M17,2.27c2.53,0,4.66,1.71,5.31,4.04.12.06.25.12.37.19-.25-1.09-.8-2.06-1.56-2.83-1.05-1.05-2.51-1.71-4.12-1.71s-3.07.65-4.12,1.71c-.76.76-1.31,1.74-1.56,2.83.12-.07.24-.13.37-.19.65-2.33,2.78-4.04,5.31-4.04Z" style="stroke-width:0px;"/><path d="M11.53,7.08c.03-.27.09-.53.16-.78-.12.06-.25.12-.37.19-.06.26-.1.52-.12.78.11-.07.22-.13.33-.19Z" style="stroke-width:0px;"/><path d="M22.47,7.08c.11.06.22.13.33.19-.02-.27-.07-.53-.12-.78-.12-.07-.24-.13-.37-.19.07.25.12.51.16.78Z" style="stroke-width:0px;"/><path d="M17,13.31c3.05,0,5.52-2.47,5.52-5.52,0-.24-.02-.47-.05-.7-.11-.06-.23-.12-.34-.18.05.29.08.58.08.88,0,1.44-.58,2.74-1.53,3.68-.94.94-2.25,1.53-3.68,1.53s-2.74-.58-3.68-1.53c-.94-.94-1.53-2.25-1.53-3.68,0-.3.03-.59.08-.88-.11.06-.23.12-.34.18-.03.23-.05.46-.05.7,0,3.05,2.47,5.52,5.52,5.52Z" style="stroke-width:0px;"/><path d="M13.32,4.1c.94-.94,2.25-1.53,3.68-1.53s2.74.58,3.68,1.53c.56.56.99,1.25,1.25,2.02.13.06.25.12.38.18-.65-2.33-2.78-4.04-5.31-4.04s-4.66,1.71-5.31,4.04c.12-.06.25-.12.38-.18.26-.77.69-1.46,1.25-2.02Z" style="stroke-width:0px;"/><path d="M12.06,6.12c-.13.06-.25.12-.38.18-.07.25-.12.51-.16.78.11-.06.23-.12.34-.18.05-.27.11-.53.2-.78Z" style="stroke-width:0px;"/><path d="M22.13,6.9c.11.06.23.12.34.18-.03-.27-.09-.53-.16-.78-.12-.06-.25-.12-.38-.18.08.25.15.51.2.78Z" style="stroke-width:0px;"/><path d="M5.73,18.1c.17-.06.33-.15.46-.28.21-.21.34-.5.34-.82s-.13-.61-.34-.82c-.13-.13-.29-.22-.46-.28-.03.36-.05.73-.05,1.1s.02.74.05,1.1Z" style="fill:#fff; stroke-width:0px;"/><path d="M5.11,15.87c-.22.05-.42.16-.57.31-.21.21-.34.5-.34.82s.13.61.34.82c.15.15.35.26.57.31-.04-.37-.06-.75-.06-1.14s.02-.76.06-1.13Z" style="fill:#fff; stroke-width:0px;"/><path d="M5.11,15.87c-.04.37-.06.75-.06,1.13s.02.76.06,1.14c.08.02.17.03.25.03.13,0,.25-.03.36-.06-.03-.36-.05-.73-.05-1.1s.02-.74.05-1.1c-.11-.04-.24-.06-.36-.06-.09,0-.17.01-.25.03Z" style="fill:#fff; stroke-width:0px;"/><path d="M3.89,17c0-.74.55-1.35,1.26-1.45.01-.1.02-.21.04-.31-.42.04-.8.22-1.08.5-.32.32-.52.77-.52,1.26s.2.94.52,1.26c.28.28.66.46,1.08.5-.02-.1-.03-.21-.04-.31-.71-.11-1.26-.71-1.26-1.45Z" style="stroke-width:0px;"/><path d="M7.15,17c0-.49-.2-.94-.52-1.26-.22-.22-.51-.38-.82-.46-.02.1-.03.21-.04.31.62.18,1.07.74,1.07,1.41s-.46,1.24-1.07,1.41c.01.1.02.21.04.31.31-.08.6-.24.82-.46.32-.32.52-.77.52-1.26Z" style="stroke-width:0px;"/><path d="M5.36,15.53c.14,0,.27.03.4.06.01-.1.02-.21.04-.31-.14-.04-.29-.06-.44-.06-.06,0-.12.01-.18.02-.02.1-.03.21-.04.31.07-.01.14-.02.22-.02Z" style="stroke-width:0px;"/><path d="M5.8,18.72c-.02-.1-.03-.21-.04-.31-.13.04-.26.06-.4.06-.07,0-.15-.01-.22-.02.01.1.02.21.04.31.06,0,.12.02.18.02.15,0,.3-.03.44-.06Z" style="stroke-width:0px;"/><path d="M6.84,17c0-.67-.46-1.24-1.07-1.41-.01.1-.03.21-.04.31.17.06.33.15.46.28.21.21.34.5.34.82s-.13.61-.34.82c-.13.13-.29.22-.46.28.01.1.02.21.04.31.62-.18,1.07-.74,1.07-1.41Z" style="stroke-width:0px;"/><path d="M4.54,17.82c-.21-.21-.34-.5-.34-.82s.13-.61.34-.82c.15-.15.35-.26.57-.31.01-.11.02-.21.04-.32-.71.11-1.26.71-1.26,1.45s.55,1.35,1.26,1.45c-.01-.11-.03-.21-.04-.32-.22-.05-.42-.16-.57-.31Z" style="stroke-width:0px;"/><path d="M5.36,15.84c.13,0,.25.03.36.06.01-.1.02-.21.04-.31-.13-.04-.26-.06-.4-.06-.07,0-.15.01-.22.02-.01.11-.03.21-.04.32.08-.02.17-.03.25-.03Z" style="stroke-width:0px;"/><path d="M5.36,18.16c-.09,0-.17-.01-.25-.03.01.11.02.21.04.32.07.01.14.02.22.02.14,0,.27-.03.4-.06-.01-.1-.03-.21-.04-.31-.11.04-.24.06-.36.06Z" style="stroke-width:0px;"/><path d="M15.86,28.89c.05.22.16.42.31.57.21.21.5.34.82.34s.61-.13.82-.34c.15-.15.26-.35.31-.57-.37.04-.75.06-1.13.06s-.76-.02-1.14-.06Z" style="fill:#fff; stroke-width:0px;"/><path d="M18.1,28.27c-.06-.17-.15-.33-.28-.46-.21-.21-.5-.34-.82-.34s-.61.13-.82.34c-.13.13-.22.29-.28.46.36.03.73.05,1.1.05s.74-.02,1.1-.05Z" style="fill:#fff; stroke-width:0px;"/><path d="M15.86,28.89c.37.04.75.06,1.14.06s.76-.02,1.13-.06c.02-.08.03-.17.03-.25,0-.13-.03-.25-.06-.36-.36.03-.73.05-1.1.05s-.74-.02-1.1-.05c-.04.11-.06.24-.06.36,0,.09.01.17.03.25Z" style="fill:#fff; stroke-width:0px;"/><path d="M17,26.85c-.49,0-.94.2-1.26.52-.22.22-.38.51-.46.82.1.02.21.03.31.04.18-.62.74-1.07,1.41-1.07s1.24.46,1.41,1.07c.1-.01.21-.02.31-.04-.08-.31-.24-.6-.46-.82-.32-.32-.77-.52-1.26-.52Z" style="stroke-width:0px;"/><path d="M17,30.11c-.74,0-1.35-.55-1.45-1.26-.1-.01-.21-.02-.31-.04.04.42.22.8.5,1.08.32.32.77.52,1.26.52s.94-.2,1.26-.52c.28-.28.46-.66.5-1.08-.1.02-.21.03-.31.04-.11.71-.71,1.26-1.45,1.26Z" style="stroke-width:0px;"/><path d="M15.53,28.64c0-.14.03-.27.06-.4-.1-.01-.21-.02-.31-.04-.04.14-.06.29-.06.44,0,.06.01.12.02.18.1.02.21.03.31.04-.01-.07-.02-.14-.02-.22Z" style="stroke-width:0px;"/><path d="M18.72,28.2c-.1.02-.21.03-.31.04.04.13.06.26.06.4,0,.07-.01.15-.02.22.1-.01.21-.02.31-.04,0-.06.02-.12.02-.18,0-.15-.03-.3-.06-.44Z" style="stroke-width:0px;"/><path d="M17.82,29.46c-.21.21-.5.34-.82.34s-.61-.13-.82-.34c-.15-.15-.26-.35-.31-.57-.11-.01-.21-.02-.32-.04.11.71.71,1.26,1.45,1.26s1.35-.55,1.45-1.26c-.11.01-.21.03-.32.04-.05.22-.16.42-.31.57Z" style="stroke-width:0px;"/><path d="M17,27.16c-.67,0-1.24.46-1.41,1.07.1.01.21.03.31.04.06-.17.15-.33.28-.46.21-.21.5-.34.82-.34s.61.13.82.34c.13.13.22.29.28.46.1-.01.21-.02.31-.04-.18-.62-.74-1.07-1.41-1.07Z" style="stroke-width:0px;"/><path d="M18.16,28.64c0,.09-.01.17-.03.25.11,0,.21-.02.32-.04.01-.07.02-.14.02-.22,0-.14-.03-.27-.06-.4-.1.01-.21.03-.31.04.04.11.06.24.06.36Z" style="stroke-width:0px;"/><path d="M15.84,28.64c0-.13.03-.25.06-.36-.1-.01-.21-.02-.31-.04-.04.13-.06.26-.06.4,0,.07.01.15.02.22.11.01.21.03.32.04-.02-.08-.03-.17-.03-.25Z" style="stroke-width:0px;"/><path d="M28.89,18.13c.22-.05.42-.16.57-.31.21-.21.34-.5.34-.82s-.13-.61-.34-.82c-.15-.15-.35-.26-.57-.31.04.37.06.75.06,1.13s-.02.76-.06,1.14Z" style="fill:#fff; stroke-width:0px;"/><path d="M27.47,17c0,.32.13.61.34.82.13.13.29.22.46.28.04-.36.05-.73.05-1.1s-.02-.74-.05-1.1c-.17.06-.33.15-.46.28-.21.21-.34.5-.34.82Z" style="fill:#fff; stroke-width:0px;"/><path d="M28.27,18.1c.11.04.24.06.36.06.09,0,.17-.01.25-.03.04-.37.06-.75.06-1.14s-.02-.76-.06-1.13c-.08-.02-.17-.03-.25-.03-.13,0-.25.03-.36.06.03.36.05.73.05,1.1s-.02.74-.05,1.1Z" style="fill:#fff; stroke-width:0px;"/><path d="M28.85,15.55c.71.11,1.26.71,1.26,1.45s-.55,1.35-1.26,1.45c-.01.1-.02.21-.04.31.42-.04.8-.22,1.08-.5.32-.32.52-.77.52-1.26s-.2-.94-.52-1.26c-.28-.28-.66-.46-1.08-.5.02.1.03.21.04.31Z" style="stroke-width:0px;"/><path d="M27.16,17c0-.67.46-1.24,1.07-1.41-.01-.1-.02-.21-.04-.31-.31.08-.6.24-.82.46-.32.32-.52.77-.52,1.26s.2.94.52,1.26c.22.22.51.38.82.46.02-.1.03-.21.04-.31-.62-.18-1.07-.74-1.07-1.41Z" style="stroke-width:0px;"/><path d="M28.2,15.28c.02.1.03.21.04.31.13-.04.26-.06.4-.06.07,0,.15.01.22.02-.01-.1-.02-.21-.04-.31-.06,0-.12-.02-.18-.02-.15,0-.3.03-.44.06Z" style="stroke-width:0px;"/><path d="M28.63,18.47c-.14,0-.27-.03-.4-.06-.01.1-.02.21-.04.31.14.04.29.06.44.06.06,0,.12-.01.18-.02.02-.1.03-.21.04-.31-.07.01-.14.02-.22.02Z" style="stroke-width:0px;"/><path d="M29.46,16.18c.21.21.34.5.34.82s-.13.61-.34.82c-.15.15-.35.26-.57.31-.01.11-.02.21-.04.32.71-.11,1.26-.71,1.26-1.45s-.55-1.35-1.26-1.45c.01.11.03.21.04.32.22.05.42.16.57.31Z" style="stroke-width:0px;"/><path d="M27.81,17.82c-.21-.21-.34-.5-.34-.82s.13-.61.34-.82c.13-.13.29-.22.46-.28-.01-.1-.02-.21-.04-.31-.62.18-1.07.74-1.07,1.41s.46,1.24,1.07,1.41c.01-.1.03-.21.04-.31-.17-.06-.33-.15-.46-.28Z" style="stroke-width:0px;"/><path d="M28.24,15.59c.01.1.03.21.04.31.11-.04.24-.06.36-.06.09,0,.17.01.25.03-.01-.11-.02-.21-.04-.32-.07-.01-.14-.02-.22-.02-.14,0-.27.03-.4.06Z" style="stroke-width:0px;"/><path d="M28.63,18.16c-.13,0-.25-.03-.36-.06-.01.1-.02.21-.04.31.13.04.26.06.4.06.07,0,.15-.01.22-.02.01-.11.03-.21.04-.32-.08.02-.17.03-.25.03Z" style="stroke-width:0px;"/><path d="M19.73,16.58h-5.48c-.1.31-.27.59-.5.81-.03.03-.06.05-.09.08l1.39,2.23,1.15,1.84c.24-.1.51-.16.79-.16s.55.06.79.16l1.15-1.84,1.39-2.22s-.06-.05-.09-.08c-.22-.22-.39-.5-.49-.81ZM16.99,20.59c-.99,0-1.79-.8-1.79-1.79s.8-1.79,1.79-1.79,1.79.8,1.79,1.79-.8,1.79-1.79,1.79Z" style="stroke-width:0px;"/><path d="M16.99,17.01c-.99,0-1.79.8-1.79,1.79s.8,1.79,1.79,1.79,1.79-.8,1.79-1.79-.8-1.79-1.79-1.79Z" style="fill:#fff; stroke-width:0px;"/><path d="M13.59,16.58c.11-.2.17-.43.17-.68,0-.41-.17-.78-.43-1.05-.27-.27-.64-.43-1.05-.43s-.78.17-1.05.43-.43.64-.43,1.05.17.78.43,1.05.64.43,1.05.43.78-.17,1.05-.43c0,0,0-.01.01-.02l-.22-.36h.47Z" style="stroke-width:0px;"/><path d="M13.11,16.58l.22.36c.1-.1.18-.23.25-.36h-.47Z" style="stroke-width:0px;"/><path d="M12.27,17.7c-.99,0-1.79-.8-1.79-1.79s.8-1.79,1.79-1.79,1.79.8,1.79,1.79c0,.24-.05.47-.13.68h.32c.07-.21.12-.44.12-.68,0-.58-.24-1.11-.62-1.49-.38-.38-.91-.62-1.49-.62s-1.11.24-1.49.62c-.38.38-.62.91-.62,1.49s.24,1.11.62,1.49c.38.38.91.62,1.49.62.54,0,1.02-.21,1.4-.54l-.16-.26c-.32.3-.75.49-1.23.49Z" style="fill:#fff; stroke-width:0px;"/><path d="M14.25,16.58h-.32c-.1.24-.25.45-.43.62l.16.26s.06-.05.09-.08c.22-.22.39-.5.5-.81Z" style="fill:#fff; stroke-width:0px;"/><path d="M12.27,14.11c-.99,0-1.79.8-1.79,1.79s.8,1.79,1.79,1.79c.48,0,.91-.19,1.23-.49l-.17-.27s0,.01-.01.02c-.27.27-.64.43-1.05.43s-.78-.17-1.05-.43-.43-.64-.43-1.05.17-.78.43-1.05.64-.43,1.05-.43.78.17,1.05.43c.27.27.43.64.43,1.05,0,.24-.07.47-.17.68h.34c.09-.21.13-.44.13-.68,0-.99-.8-1.79-1.79-1.79Z" style="fill:#fff; stroke-width:0px;"/><path d="M13.33,16.93l.17.27c.18-.17.33-.39.43-.62h-.34c-.07.13-.15.25-.25.36Z" style="fill:#fff; stroke-width:0px;"/><path d="M21.71,17.39c.41,0,.78-.17,1.05-.43h0s0,0,0,0c.27-.27.43-.64.43-1.05s-.17-.78-.43-1.05-.64-.43-1.05-.43-.78.17-1.05.43-.43.64-.43,1.05c0,.24.06.47.17.68h.47l-.22.36s0,.01.01.02c.27.27.64.43,1.05.43Z" style="stroke-width:0px;"/><path d="M20.4,16.58c.07.13.15.25.25.36l.22-.36h-.47Z" style="stroke-width:0px;"/><path d="M23.2,14.41c-.38-.38-.91-.62-1.49-.62s-1.11.24-1.49.62c-.38.38-.62.91-.62,1.49,0,.24.05.46.12.68h.32c-.09-.21-.13-.44-.13-.68,0-.99.8-1.79,1.79-1.79s1.79.8,1.79,1.79-.8,1.79-1.79,1.79c-.48,0-.91-.19-1.23-.49l-.16.26c.37.33.86.54,1.39.54.58,0,1.11-.24,1.49-.62h0c.38-.38.62-.91.62-1.49s-.24-1.11-.62-1.49Z" style="fill:#fff; stroke-width:0px;"/><path d="M20.05,16.58h-.32c.1.31.27.59.49.81.03.03.06.05.09.08l.16-.26c-.18-.17-.33-.39-.43-.62Z" style="fill:#fff; stroke-width:0px;"/><path d="M20.23,15.9c0-.41.17-.78.43-1.05s.64-.43,1.05-.43.78.17,1.05.43.43.64.43,1.05-.17.78-.43,1.05h0s0,0,0,0c-.27.27-.64.43-1.05.43s-.78-.17-1.05-.43c0,0,0-.01-.01-.02l-.17.27c.32.3.75.49,1.23.49.99,0,1.79-.8,1.79-1.79s-.8-1.79-1.79-1.79-1.79.8-1.79,1.79c0,.24.05.47.13.68h.34c-.1-.2-.17-.43-.17-.68Z" style="fill:#fff; stroke-width:0px;"/><path d="M20.48,17.2l.17-.27c-.1-.1-.18-.23-.25-.36h-.34c.1.24.25.45.43.62Z" style="fill:#fff; stroke-width:0px;"/><path d="M16.54,22.07c-.23.07-.43.19-.6.36-.27.27-.43.64-.43,1.05s.17.78.43,1.05c.27.27.64.43,1.05.43s.78-.17,1.05-.43c.27-.27.43-.64.43-1.05s-.17-.78-.43-1.05c-.16-.16-.37-.28-.59-.36l-.46.73-.46-.73Z" style="stroke-width:0px;"/><path d="M16.54,22.07l.46.73.46-.73c-.14-.05-.3-.08-.46-.08s-.31.03-.45.08Z" style="stroke-width:0px;"/><path d="M18.78,23.48c0,.99-.8,1.79-1.79,1.79s-1.79-.8-1.79-1.79c0-.77.49-1.42,1.17-1.68l-.17-.27c-.26.11-.5.26-.7.46-.38.38-.62.91-.62,1.49s.24,1.11.62,1.49c.38.38.91.62,1.49.62s1.11-.24,1.49-.62c.38-.38.62-.91.62-1.49s-.24-1.11-.62-1.49c-.2-.2-.43-.35-.7-.46l-.17.27c.68.25,1.17.91,1.17,1.68Z" style="fill:#fff; stroke-width:0px;"/><path d="M16.2,21.53l.17.27c.19-.07.4-.12.62-.12s.43.05.62.12l.17-.27c-.24-.1-.51-.16-.79-.16s-.55.06-.79.16Z" style="fill:#fff; stroke-width:0px;"/><path d="M15.2,23.48c0,.99.8,1.79,1.79,1.79s1.79-.8,1.79-1.79c0-.77-.49-1.42-1.17-1.68l-.17.27c.23.07.43.19.59.36.27.27.43.64.43,1.05s-.17.78-.43,1.05c-.27.27-.64.43-1.05.43s-.78-.17-1.05-.43c-.27-.27-.43-.64-.43-1.05s.17-.78.43-1.05c.16-.16.37-.28.6-.36l-.17-.27c-.68.25-1.17.91-1.17,1.68Z" style="fill:#fff; stroke-width:0px;"/><path d="M16.99,21.99c.16,0,.31.03.46.08l.17-.27c-.19-.07-.4-.12-.62-.12s-.43.05-.62.12l.17.27c.14-.05.3-.08.45-.08Z" style="fill:#fff; stroke-width:0px;"/></g></svg>