<?xml version="1.0" encoding="UTF-8"?><svg id="Layer_2" xmlns="http://www.w3.org/2000/svg" xmlns:xlink="http://www.w3.org/1999/xlink" viewBox="0 0 34 34"><defs><linearGradient id="linear-gradient" x1="33.51" y1="17" x2="-7.77" y2="17" gradientUnits="userSpaceOnUse"><stop offset="0" stop-color="#ed1c24"/><stop offset="1" stop-color="#880102"/></linearGradient><linearGradient id="linear-gradient-2" x1="1.95" x2="32.05" y2="17" xlink:href="#linear-gradient"/></defs><g id="BG"><circle cx="17" cy="17" r="17" style="fill:url(#linear-gradient); stroke-width:0px;"/><circle cx="17" cy="17" r="15.05" style="fill:url(#linear-gradient-2); stroke-width:0px;"/><path d="M24.47,15.58c-.09-.82-1.85-2.21-4.59-.35,0,0,.4-2.38-1.37-4.72-1.76-2.34-1.68-4.59-1.68-4.59,0,0-1.9,1.63.44,5.6,0,0-1.98-1.37-1.94-4.19,0,0-1.59,1.41-.66,3.18,0,0-.35.04-.97-.84,0,0-2.21,4.85,1.81,8.34,0,0-3.79.44-6.57,4.06,0,0,3.26-1.72,4.19-1.9,0,0-5.2,2.78-7.45,5.56,0,0,3.18-1.1,4.9-1.94,0,0-1.63,1.68-3.09,1.94,0,0,3.35-.75,5.6-2.25,0,0-.44.97-1.41,1.41,0,0,3.93-1.85,6.13-4.37,0,0,1.94,3.26,7.76,2.43,0,0-.35,0-1.15-1.06,0,0,1.46,1.28,3.7.18,0,0-2.34-.13-3.75-1.94,0,0,2.69,2.07,4.63.66,0,0-1.46.13-3.4-1.59-1.94-1.72-4.01-2.07-4.01-2.07,0,0,.67-.44,1.46-1.3.78-.86,1.41-.24,1.41-.24Z" style="fill:#fff; stroke-width:0px;"/></g></svg>