<?xml version="1.0" encoding="UTF-8"?><svg id="Layer_2" xmlns="http://www.w3.org/2000/svg" viewBox="0 0 34 34"><g id="BG"><circle cx="17" cy="17" r="17" style="fill:#fcfbee; stroke-width:0px;"/><path d="M10.71,16.37s.07.05.11.08c.01-.03.03-.06.05-.09-.05,0-.11,0-.16,0Z" style="fill:#fff; stroke-width:0px;"/><path d="M13.25,14.28c-.02.05-.04.11-.06.16-.11.27-.22.55-.33.82.4.45.84.87,1.33,1.25.06-.19.12-.39.17-.58-.09-.11-.19-.21-.28-.33-.32-.42-.59-.87-.82-1.32Z" style="fill:#fff; stroke-width:0px;"/><path d="M14.46,15.5c.08-.34.16-.68.22-1.02.15.18.3.38.45.57-.07-.18-.14-.35-.2-.54-.54-1.72-.58-3.48-.21-5.14-.16,0-.31-.02-.47-.02-.09,0-.18.01-.28.01-.61,2.01-.45,4.21.5,6.14Z" style="fill:#fff; stroke-width:0px;"/><path d="M7.17,18.6c-.27-.16-.53-.34-.78-.53.21.24.47.42.78.53Z" style="fill:#fff; stroke-width:0px;"/><path d="M9.65,18.14s.08-.07.12-.11c.17-.19.31-.39.46-.59-1.73-.7-3.22-1.87-4.32-3.35-.01.03-.03.06-.04.09.81,1.77,2.17,3.12,3.79,3.95Z" style="fill:#fff; stroke-width:0px;"/><path d="M9.02,24.81c.46-.21.9-.48,1.33-.84.52-.44.97-.9,1.35-1.38-.75.19-1.51.28-2.28.27-1.84.16-3.71-.18-5.4-1.03-.02.05-.04.09-.06.14-.08.27-.12.53-.12.79,0,.37.11.72.3,1.05.55.27,1.13.5,1.74.67,1.05.29,2.11.38,3.13.32Z" style="fill:#fff; stroke-width:0px;"/><path d="M8.42,12.74c.27-.2.55-.36.86-.47-.14-.35-.25-.72-.34-1.09-.06-.17-.11-.34-.16-.52-.63.35-1.19.78-1.65,1.3.21.52.46,1.02.75,1.49.12-.29.3-.53.54-.72Z" style="fill:#fff; stroke-width:0px;"/><path d="M11.84,17.94c-.05.15-.11.29-.17.44-.05.15-.12.3-.19.45.61.15,1.23.23,1.87.24.1-.3.2-.6.3-.9-.62-.02-1.23-.09-1.82-.22Z" style="fill:#fff; stroke-width:0px;"/><path d="M12.72,20.85c.03-.08.06-.16.09-.23.05-.17.11-.34.17-.5.04-.11.09-.23.13-.35-.73.12-1.46.13-2.17.07-.3.44-.67.86-1.11,1.25-.04.04-.09.07-.13.1,1.02.05,2.04-.07,3.02-.34Z" style="fill:#fff; stroke-width:0px;"/><path d="M18.27,16.27c.63.05,1.27.16,1.91.35,1.5.45,2.79,1.28,3.82,2.35l.49-1.45c-1.95-1.28-4.36-1.86-6.82-1.44.61-.23,1.25-.4,1.92-.52-.62-.02-1.25.03-1.88.16.59-.24,1.21-.43,1.86-.55.95-.17,1.89-.17,2.81-.04-.21-.38-.45-.74-.7-1.1-1.61.18-3.2.77-4.59,1.81.48-.53,1.03-1.03,1.65-1.47.72-.51,1.49-.91,2.29-1.21-.19-.24-.38-.48-.59-.71-1.53.61-2.89,1.67-3.87,3.14.24-.59.55-1.16.93-1.7.61-.88,1.36-1.6,2.19-2.18-.1-.1-.2-.21-.31-.31-.2-.18-.39-.35-.6-.5-1.34,1.39-2.27,3.18-2.57,5.21-.03-.67,0-1.35.11-2.04-.2.58-.35,1.19-.43,1.82-.05-.63-.04-1.28.05-1.94.2-1.44.74-2.76,1.53-3.88-.43-.21-.87-.37-1.32-.49-.82,1.83-1.07,3.92-.61,5.98.5.66.99,1.33,1.44,2.04.16.24.3.49.46.74.02-.06.05-.12.07-.19,0,.08-.03.16-.04.24.21.34.42.68.63,1.02.05-.43.08-.87.06-1.32.14.58.22,1.18.24,1.81.22.35.44.7.65,1.06.03.05.06.1.09.16.01.03.03.05.05.07-.09-1.27-.43-2.53-1.05-3.72.36.45.68.94.97,1.46-.17-.52-.39-1.03-.67-1.52.41.48.78,1.01,1.1,1.6.75,1.4,1.07,2.91,1.03,4.41.41.66.83,1.3,1.26,1.92l.31-.92c-.06-2.92-1.46-5.76-4-7.56.66.29,1.3.66,1.9,1.11,1.34.99,2.36,2.26,3.04,3.68l.38-1.12c-1.03-2.01-2.87-3.6-5.2-4.25Z" style="fill:#fff; stroke-width:0px;"/><path d="M24.78,12.53c.58.01,1.16.08,1.73.19.05-.09.1-.18.15-.27-.55-.22-1.11-.38-1.68-.48l-.21.56Z" style="fill:#fff; stroke-width:0px;"/><path d="M25.74,10.15c.88.09,1.75.32,2.59.69.4-.18.86-.27,1.36-.31-.77-.67-1.67-1.19-2.66-1.54-.18.09-.35.19-.52.32-.32.24-.57.53-.77.85Z" style="fill:#fff; stroke-width:0px;"/><path d="M12.44,12.56c.06.03.11.07.18.1-.29-1.03-.38-2.1-.29-3.15-.59.09-1.16.22-1.71.39,0,.2,0,.41.01.61.09.56.23,1.11.42,1.65.48.07.94.21,1.39.41Z" style="fill:#fff; stroke-width:0px;"/><path d="M12.45,16.31c-.08.22-.16.43-.25.65-.02.06-.05.12-.07.19.54.24,1.1.42,1.68.56.06-.18.12-.36.18-.53-.11-.05-.21-.08-.32-.13-.43-.21-.84-.46-1.22-.73Z" style="fill:#fff; stroke-width:0px;"/><path d="M23.71,15.42c.45.14.89.32,1.32.53l.15-.44c.14-.39.31-.74.46-1.11-.47-.15-.95-.26-1.43-.33l-.5,1.35Z" style="fill:#fff; stroke-width:0px;"/><path d="M16.32,14.08c-.1.69-.14,1.37-.11,2.04.3-2.04,1.24-3.83,2.57-5.21-.08-.06-.17-.12-.25-.18-.98.91-1.75,2.05-2.21,3.36Z" style="fill:#fbae42; stroke-width:0px;"/><path d="M12.61,12.65c.38.19.72.41,1,.68-.12.31-.24.63-.37.94.23.46.5.9.82,1.32.09.12.19.22.28.33.04-.14.07-.29.1-.43-.95-1.93-1.11-4.13-.5-6.14-.56.01-1.11.06-1.64.14-.09,1.05,0,2.12.29,3.15Z" style="fill:#2177bb; stroke-width:0px;"/><path d="M12.86,15.25c-.04.1-.08.2-.12.31,0,.02-.01.04-.02.05.41.46.86.88,1.37,1.25.04-.12.07-.24.1-.36-.49-.38-.93-.8-1.33-1.25Z" style="fill:#2da9e1; stroke-width:0px;"/><path d="M8.82,10.64s-.03.02-.04.02c.05.17.1.35.16.52-.04-.18-.09-.36-.12-.54Z" style="fill:#2da9e1; stroke-width:0px;"/><path d="M11.05,12.14c-.19-.53-.33-1.09-.42-1.65.03.55.11,1.09.25,1.62.05,0,.11.01.16.02,0,0,.01,0,.02,0Z" style="fill:#2da9e1; stroke-width:0px;"/><path d="M13.12,19.76c.02-.05.04-.1.06-.15.06-.18.12-.36.18-.54-.63,0-1.26-.09-1.87-.24-.15.34-.32.68-.54.99.72.07,1.44.05,2.17-.07Z" style="fill:#808184; stroke-width:0px;"/><path d="M9.65,18.14c-1.62-.83-2.97-2.19-3.79-3.95-.01.04-.03.06-.04.1-.07.21-.13.43-.17.66-.04.23-.06.47-.06.71v.16c.02.71.21,1.37.58,1.97.06.11.14.19.22.28.25.19.51.37.78.53.23.08.47.14.75.15.73.02,1.3-.19,1.73-.6Z" style="fill:#808184; stroke-width:0px;"/><path d="M4.73,21.5c.14.1.27.2.39.29.24.16.49.28.75.36.07.02.15.03.23.05-.51-.21-1.01-.48-1.49-.79.04.03.08.06.12.09Z" style="fill:#a5a8ab; stroke-width:0px;"/><path d="M12.6,21.14s0,0,0,0c.03-.09.07-.17.1-.26,0,0,0-.02.01-.03-.99.27-2.01.39-3.02.34-.02.01-.03.02-.05.04.98.15,1.98.12,2.95-.08Z" style="fill:#a5a8ab; stroke-width:0px;"/><path d="M9.42,22.86c-1.13,0-2.26-.23-3.32-.67-.08-.02-.16-.03-.23-.05-.26-.09-.51-.21-.75-.36-.12-.09-.25-.18-.39-.29-.04-.03-.08-.06-.12-.09-.11-.07-.22-.15-.33-.23-.11.22-.19.44-.26.66,1.69.84,3.56,1.19,5.4,1.03Z" style="fill:#a5a8ab; stroke-width:0px;"/><path d="M18.11,19.41c.1.16.2.32.3.48-.02-.62-.1-1.23-.24-1.81.02.45,0,.89-.06,1.32Z" style="fill:#d62728; stroke-width:0px;"/><path d="M19.52,21.68c.02-.92-.11-1.86-.4-2.76-.29-.52-.6-1.01-.97-1.46.62,1.19.96,2.46,1.05,3.72.01.02.02.04.04.05.09.15.18.3.27.45Z" style="fill:#e9292b; stroke-width:0px;"/><path d="M20.18,16.62c-.64-.19-1.27-.31-1.91-.35,2.33.65,4.16,2.24,5.2,4.25l.53-1.54c-1.02-1.07-2.31-1.9-3.82-2.35Z" style="fill:#3eb249; stroke-width:0px;"/><path d="M23.3,16.54c-.08-.04-.16-.08-.24-.12.06.12.11.25.15.36l.09-.24Z" style="fill:#8dc443; stroke-width:0px;"/><path d="M23.21,16.78c-.04-.12-.1-.24-.15-.36-1.06-.52-2.24-.82-3.46-.85-.67.11-1.31.28-1.92.52,2.46-.42,4.87.16,6.82,1.44l.06-.17c-.39-.31-.81-.58-1.25-.81l-.09.24Z" style="fill:#8dc443; stroke-width:0px;"/><path d="M17.5,13.89c-.38.55-.69,1.12-.93,1.7.97-1.47,2.34-2.53,3.87-3.14-.23-.26-.49-.5-.75-.75-.83.58-1.58,1.31-2.19,2.18Z" style="fill:#f69323; stroke-width:0px;"/><path d="M25.41,10.85v-.03l-.43,1.16c.57.1,1.13.26,1.68.48.08-.13.15-.28.24-.42.37-.55.85-.94,1.43-1.2-.84-.37-1.71-.59-2.59-.69-.13.21-.25.44-.33.69Z" style="fill:#f69323; stroke-width:0px;"/><path d="M18.74,14.37c-.62.44-1.16.93-1.65,1.47,1.39-1.03,2.97-1.62,4.59-1.81-.2-.29-.42-.58-.65-.86-.8.3-1.57.69-2.29,1.21Z" style="fill:#fbae42; stroke-width:0px;"/><path d="M24.78,12.53l-.57,1.54c.49.07.97.18,1.43.33.26-.59.55-1.15.86-1.68-.57-.11-1.15-.17-1.73-.19Z" style="fill:#fbae42; stroke-width:0px;"/><path d="M15.9,15.9c.07-.64.22-1.24.43-1.82,0-.06,0-.11.02-.16.23-1.35.72-2.59,1.41-3.68-.09-.05-.19-.1-.28-.15-.79,1.12-1.33,2.44-1.53,3.88-.09.66-.1,1.31-.05,1.94Z" style="fill:#2177bb; stroke-width:0px;"/><path d="M30.15,10.48c-.1-.57-.28-1.01-.53-1.33-.25-.32-.7-.48-1.36-.48-.44.01-.84.12-1.23.31.99.35,1.89.87,2.66,1.54.15-.01.3-.04.46-.04Z" style="fill:#2177bb; stroke-width:0px;"/><path d="M18.53,10.72c-.25-.18-.51-.34-.78-.49-.69,1.09-1.19,2.33-1.41,3.68,0,.06-.01.11-.02.16.46-1.3,1.23-2.45,2.21-3.36Z" style="fill:#2177bb; stroke-width:0px;"/><path d="M14.93,14.51c.06.18.13.36.2.54.14.18.28.35.42.53-.46-2.06-.21-4.15.61-5.98-.47-.12-.95-.2-1.44-.23-.36,1.66-.33,3.42.21,5.14Z" style="fill:#2da9e1; stroke-width:0px;"/><path d="M14.09,16.86c-.12-.05-.23-.1-.35-.16-.41-.21-.79-.46-1.16-.72-.04.11-.08.22-.12.33.38.27.79.52,1.22.73.11.05.21.09.32.13.01-.04.03-.08.04-.12.02-.06.03-.12.05-.19Z" style="fill:#808184; stroke-width:0px;"/><path d="M8.94,11.18c.09.37.2.73.34,1.09.04-.01.07-.02.11-.04-.17-.34-.32-.69-.45-1.05Z" style="fill:#808184; stroke-width:0px;"/><path d="M10.61,9.89s-.04.01-.06.02c.02.2.04.4.07.59-.01-.2-.02-.4-.01-.61Z" style="fill:#808184; stroke-width:0px;"/><polygon points="14.09 16.86 14.09 16.87 14.09 16.86 14.09 16.86" style="fill:#808184; stroke-width:0px;"/><path d="M9.4,12.24c.31-.1.64-.15.98-.15.1,0,.21,0,.32.01.06,0,.11.01.17.02-.13-.53-.22-1.07-.25-1.62-.03-.2-.05-.39-.07-.59-.51.16-1.02.35-1.5.59-.09.04-.16.1-.24.15.03.18.08.36.12.54.13.36.28.71.45,1.05Z" style="fill:#808184; stroke-width:0px;"/><path d="M14.09,16.86s0,0,0,0c-.51-.37-.96-.79-1.37-1.25-.05.12-.09.24-.14.37.37.26.75.51,1.16.72.11.06.23.1.35.16Z" style="fill:#808184; stroke-width:0px;"/><path d="M11.84,17.94c.59.13,1.2.2,1.82.22.05-.15.1-.31.15-.46-.58-.13-1.14-.32-1.68-.56-.1.26-.2.53-.3.8Z" style="fill:#a5a8ab; stroke-width:0px;"/><path d="M5.9,14.1c1.1,1.48,2.6,2.65,4.32,3.35.22-.31.42-.64.6-.99-.04-.02-.07-.05-.11-.08-.13,0-.25.02-.39.02h-.57c-.5-.03-.96-.16-1.39-.36-.42-.21-.65-.6-.69-1.19-.04-.55.03-1,.2-1.38-.29-.47-.54-.97-.75-1.49-.52.59-.92,1.31-1.23,2.13Z" style="fill:#a5a8ab; stroke-width:0px;"/><path d="M9.42,22.86c.77,0,1.54-.08,2.28-.27.06-.08.12-.17.18-.25-.8.28-1.63.45-2.46.53Z" style="fill:#d62728; stroke-width:0px;"/><path d="M12.6,21.14c-.97.2-1.97.23-2.95.08-.85.71-1.78,1.07-2.8,1.05-.29,0-.54-.03-.76-.08,1.06.44,2.19.66,3.32.67.84-.07,1.66-.25,2.46-.53.28-.39.53-.78.72-1.19Z" style="fill:#d62728; stroke-width:0px;"/><path d="M4.29,21.16s0,.01,0,.02c.11.08.22.15.33.23-.1-.08-.21-.16-.32-.25Z" style="fill:#d62728; stroke-width:0px;"/><path d="M5.35,24.86c.29.14.58.24.87.3s.57.09.87.09c.67,0,1.31-.16,1.93-.44-1.03.06-2.08-.03-3.13-.32-.61-.17-1.19-.4-1.74-.67.02.04.03.08.05.11.23.36.62.67,1.15.93Z" style="fill:#e9292b; stroke-width:0px;"/><path d="M17.51,18.16c-.02.06-.05.12-.07.19.01.02.02.03.03.05.01-.08.03-.16.04-.24Z" style="fill:#e9292b; stroke-width:0px;"/><path d="M19.54,19c-.31-.59-.68-1.12-1.1-1.6.28.49.5,1,.67,1.52.07.13.16.26.22.4.6,1.2.92,2.47,1.01,3.74.05.09.1.17.16.26.02.03.04.07.07.1.04-1.49-.28-3.01-1.03-4.41Z" style="fill:#3eb249; stroke-width:0px;"/><path d="M19.52,21.68c.28.46.55.91.84,1.37-.09-1.27-.42-2.54-1.01-3.74-.07-.14-.15-.26-.22-.4.3.9.42,1.84.4,2.76Z" style="fill:#3eb249; stroke-width:0px;"/><path d="M20.05,17.96c-.61-.45-1.24-.82-1.9-1.11,2.54,1.8,3.94,4.65,4,7.56l.94-2.77c-.68-1.41-1.7-2.69-3.04-3.68Z" style="fill:#8dc443; stroke-width:0px;"/><path d="M22.59,15.51c-.07-.13-.14-.25-.21-.38-.91-.13-1.86-.13-2.81.04-.65.12-1.28.31-1.86.55.63-.13,1.26-.17,1.88-.16.07-.01.14-.03.21-.04.94-.14,1.88-.14,2.79-.02Z" style="fill:#f69323; stroke-width:0px;"/><path d="M23.61,15.7c.46.11.91.27,1.36.44l.06-.19c-.42-.21-.86-.39-1.32-.53l-.1.27Z" style="fill:#f69323; stroke-width:0px;"/><path d="M23.02,16.35c-.07-.15-.14-.29-.21-.43-.07-.14-.15-.28-.23-.41-.91-.12-1.84-.12-2.79.02-.07.01-.14.03-.21.04,1.22.03,2.4.33,3.46.85-.01-.02-.02-.04-.03-.07Z" style="fill:#f69323; stroke-width:0px;"/><path d="M24.55,17.35l.41-1.21c-.44-.18-.89-.33-1.36-.44l-.31.84c.44.23.86.5,1.25.81Z" style="fill:#f69323; stroke-width:0px;"/></g></svg>