<?xml version="1.0" encoding="UTF-8"?><svg id="Layer_2" xmlns="http://www.w3.org/2000/svg" xmlns:xlink="http://www.w3.org/1999/xlink" viewBox="0 0 34 34"><defs><linearGradient id="linear-gradient" x1="5.01" y1="17" x2="26.73" y2="17" gradientUnits="userSpaceOnUse"><stop offset="0" stop-color="#fefefe"/><stop offset="1" stop-color="#00adee"/></linearGradient><linearGradient id="linear-gradient-2" x1="10.34" y1="17" x2="28.44" y2="17" xlink:href="#linear-gradient"/><linearGradient id="linear-gradient-3" x1=".78" y1="17" x2="29.9" y2="17" xlink:href="#linear-gradient"/><linearGradient id="linear-gradient-4" x1="18.85" y1="32.71" x2="18.72" y2="9.62" xlink:href="#linear-gradient"/></defs><g id="BG"><circle cx="17" cy="17" r="17" style="fill:#fff; stroke-width:0px;"/><path d="M8.77,17.93h-1.54v-2.58h.58v2.11h.95v.47Z" style="fill:#58595b; stroke-width:0px;"/><path d="M9.94,17.98c-.31,0-.55-.09-.72-.26-.18-.17-.26-.41-.26-.7s.09-.54.27-.71c.18-.17.43-.26.74-.26s.55.09.72.26c.17.17.26.4.26.68,0,.31-.09.55-.27.72-.18.18-.42.27-.74.27ZM9.95,16.48c-.13,0-.24.05-.31.14-.07.09-.11.22-.11.39,0,.35.14.53.43.53s.41-.18.41-.54c0-.34-.14-.52-.41-.52Z" style="fill:#58595b; stroke-width:0px;"/><path d="M12.84,17.93h-.54v-.26h0c-.12.21-.31.31-.55.31-.18,0-.32-.05-.42-.15-.1-.1-.15-.24-.15-.41,0-.36.21-.56.63-.62l.5-.07c0-.2-.11-.3-.33-.3s-.43.07-.63.2v-.43c.08-.04.19-.08.32-.11.14-.03.26-.05.37-.05.53,0,.79.26.79.79v1.1ZM12.31,17.18v-.12l-.33.04c-.18.02-.28.11-.28.25,0,.06.02.12.07.16.05.04.11.06.18.06.11,0,.19-.04.26-.11.07-.07.1-.17.1-.28Z" style="fill:#58595b; stroke-width:0px;"/><path d="M15.1,17.93h-.57v-.25h0c-.13.2-.32.3-.57.3-.23,0-.42-.08-.56-.24-.14-.16-.21-.39-.21-.68s.08-.55.23-.73c.15-.18.36-.28.61-.28.24,0,.4.09.5.26h0v-1.1h.57v2.73ZM14.54,17.04v-.14c0-.12-.03-.22-.1-.3-.07-.08-.16-.12-.27-.12-.13,0-.22.05-.29.15-.07.1-.11.23-.11.41,0,.16.03.29.1.37.07.09.16.13.28.13s.21-.05.28-.14c.07-.09.11-.21.11-.37Z" style="fill:#58595b; stroke-width:0px;"/><path d="M15.86,15.8c-.1,0-.17-.03-.24-.09-.06-.06-.09-.13-.09-.21s.03-.15.09-.21c.06-.05.14-.08.24-.08s.18.03.24.08c.06.05.09.12.09.21s-.03.16-.09.21c-.06.06-.14.08-.24.08ZM16.14,17.93h-.57v-1.84h.57v1.84Z" style="fill:#58595b; stroke-width:0px;"/><path d="M18.4,17.93h-.57v-1.02c0-.29-.1-.43-.31-.43-.1,0-.18.04-.24.11-.06.08-.1.17-.1.29v1.05h-.57v-1.84h.57v.29h0c.14-.22.33-.34.59-.34.41,0,.61.25.61.76v1.13Z" style="fill:#58595b; stroke-width:0px;"/><path d="M20.65,17.72c0,.34-.1.61-.3.79-.2.19-.48.28-.86.28-.25,0-.44-.04-.59-.11v-.48c.19.11.38.17.57.17s.34-.05.45-.15c.11-.1.16-.24.16-.41v-.15h0c-.13.21-.32.31-.57.31-.24,0-.42-.08-.56-.25-.14-.17-.21-.39-.21-.67,0-.31.08-.56.23-.74.15-.18.36-.28.61-.28.22,0,.39.09.5.26h0v-.21h.57v1.63ZM20.09,17.05v-.15c0-.12-.03-.22-.1-.3-.07-.08-.16-.12-.27-.12-.13,0-.22.05-.3.15-.07.1-.11.24-.11.42,0,.15.03.27.1.36.07.09.16.13.28.13s.21-.05.29-.14c.07-.09.11-.21.11-.36Z" style="fill:#58595b; stroke-width:0px;"/><path d="M22.4,17.98c-.09,0-.17-.03-.23-.09-.06-.06-.09-.13-.09-.21s.03-.16.1-.21c.06-.06.14-.08.24-.08s.18.03.24.08c.06.06.09.13.09.21s-.03.16-.09.21c-.06.06-.14.08-.25.08Z" style="fill:#58595b; stroke-width:0px;"/><path d="M24.41,17.98c-.09,0-.17-.03-.23-.09-.06-.06-.09-.13-.09-.21s.03-.16.1-.21c.06-.06.14-.08.24-.08s.18.03.24.08c.06.06.09.13.09.21s-.03.16-.09.21c-.06.06-.14.08-.25.08Z" style="fill:#58595b; stroke-width:0px;"/><path d="M26.43,17.98c-.09,0-.17-.03-.23-.09-.06-.06-.09-.13-.09-.21s.03-.16.1-.21c.06-.06.14-.08.24-.08s.18.03.24.08c.06.06.09.13.09.21s-.03.16-.09.21c-.06.06-.14.08-.25.08Z" style="fill:#58595b; stroke-width:0px;"/><path d="M17.56,5.67c3.08-.06,5.89,1.11,7.97,3.06.28.26.72.25.99-.02h0c.29-.29.28-.75-.01-1.03-2.31-2.16-5.41-3.48-8.82-3.45-7.02.05-12.7,5.81-12.67,12.82.03,7.02,5.75,12.72,12.77,12.72,1.18,0,2.32-.16,3.4-.46.4-.11.62-.54.49-.93h0c-.13-.36-.51-.55-.87-.45-.96.26-1.97.41-3.01.41-6.25,0-11.32-5.06-11.33-11.31,0-6.16,4.95-11.23,11.11-11.35Z" style="fill:url(#linear-gradient); stroke-width:0px;"/><path d="M17.97,26.32c-2.68,0-5.09-1.11-6.8-2.91l-.83.83c1.93,2.02,4.65,3.28,7.66,3.26,5.76-.03,10.45-4.75,10.44-10.51,0-5.78-4.72-10.49-10.5-10.49-.97,0-1.91.13-2.8.38-.33.09-.51.44-.4.77h0c.1.29.41.45.71.37.79-.22,1.62-.33,2.48-.33,5.1,0,9.24,4.1,9.32,9.18.08,5.14-4.14,9.44-9.29,9.46Z" style="fill:url(#linear-gradient-2); stroke-width:0px;"/><path d="M17.65,34c1.81.01,3.55-.25,5.18-.76.28-.09.42-.38.33-.65h0c-.09-.26-.37-.4-.63-.32-1.53.48-3.12.72-4.75.72-2.16,0-4.25-.42-6.22-1.26-1.9-.81-3.61-1.96-5.08-3.43-1.47-1.47-2.62-3.18-3.43-5.08-.83-1.97-1.26-4.07-1.26-6.22s.42-4.25,1.26-6.22c.81-1.9,1.96-3.61,3.43-5.08,1.47-1.47,3.18-2.62,5.08-3.43,1.97-.83,4.07-1.26,6.22-1.26s4.25.42,6.22,1.26c1.9.81,3.61,1.96,5.08,3.43h0c.12.12.32.12.44,0l.28-.28c.12-.12.12-.32,0-.44C26.73,1.9,22.48,0,17.78,0,8.39,0,.78,7.61.78,17c0,9.35,7.51,16.93,16.87,17Z" style="fill:url(#linear-gradient-3); stroke-width:0px;"/><path d="M23.59,2.7c-1.85-.75-3.8-1.13-5.81-1.13-2,0-3.96.38-5.81,1.13-1.92.78-3.63,1.92-5.11,3.39-.96.96-1.78,2.03-2.45,3.19-.31.53-.1,1.22.46,1.49h0c.5.24,1.1.06,1.38-.42.57-.99,1.28-1.92,2.12-2.76,5.19-5.19,13.65-5.19,18.84,0,5.2,5.2,5.19,13.64,0,18.84-2.67,2.67-6.19,3.96-9.7,3.89l-.04,2.12c.11,0,.22,0,.32,0,2,0,3.96-.38,5.81-1.13,1.92-.78,3.63-1.92,5.11-3.39,1.47-1.47,2.61-3.19,3.39-5.11.75-1.85,1.13-3.8,1.13-5.81s-.38-3.96-1.13-5.81c-.78-1.92-1.92-3.63-3.39-5.11-1.47-1.47-3.19-2.61-5.11-3.39Z" style="fill:url(#linear-gradient-4); stroke-width:0px;"/><text transform="translate(8.62 24.79)" style="fill:#27aae1; font-family:Broadway, Broadway; font-size:21.83px;"><tspan x="0" y="0">V</tspan></text></g></svg>