<?xml version="1.0" encoding="UTF-8"?><svg id="Layer_2" xmlns="http://www.w3.org/2000/svg" viewBox="0 0 34 34"><g id="BG"><circle cx="17" cy="17" r="17" style="fill:#fff; stroke-width:0px;"/><path d="M17,0C7.61,0,0,7.61,0,17,0,8.55,6.85,1.7,15.3,1.7s15.3,6.85,15.3,15.3-6.85,15.3-15.3,15.3S0,25.45,0,17C0,26.39,7.61,34,17,34s17-7.61,17-17S26.39,0,17,0Z" style="fill:#a7a9ac; stroke-width:0px;"/><path d="M13.6,30.6c7.31,0,13.26-5.76,13.58-12.99-.32,6.29-5.52,11.29-11.88,11.29S3.4,23.57,3.4,17,8.73,5.1,15.3,5.1s11.57,5,11.88,11.29c-.32-7.23-6.28-12.99-13.58-12.99S0,9.49,0,17s6.09,13.6,13.6,13.6Z" style="fill:#a7a9ac; stroke-width:0px;"/><path d="M17,6.8c-5.63,0-10.2,4.57-10.2,10.2,0-4.69,3.81-8.5,8.5-8.5s8.5,3.81,8.5,8.5-3.81,8.5-8.5,8.5-8.5-3.81-8.5-8.5c0,5.63,4.57,10.2,10.2,10.2s10.2-4.57,10.2-10.2-4.57-10.2-10.2-10.2Z" style="fill:#a7a9ac; stroke-width:0px;"/><path d="M13.6,23.8c3.76,0,6.8-3.04,6.8-6.8,0,2.82-2.28,5.1-5.1,5.1s-5.1-2.28-5.1-5.1,2.28-5.1,5.1-5.1,5.1,2.28,5.1,5.1c0-3.76-3.04-6.8-6.8-6.8s-6.8,3.04-6.8,6.8,3.04,6.8,6.8,6.8Z" style="fill:#a7a9ac; stroke-width:0px;"/></g></svg>