<?xml version="1.0" encoding="UTF-8"?><svg xmlns="http://www.w3.org/2000/svg" xmlns:xlink="http://www.w3.org/1999/xlink" viewBox="0 0 38.6 38.37"><defs><linearGradient id="linear-gradient" x1="33.51" y1="17" x2="-7.77" y2="17" gradientUnits="userSpaceOnUse"><stop offset="0" stop-color="#ed1c24"/><stop offset="1" stop-color="#880102"/></linearGradient><linearGradient id="linear-gradient-2" x1="1.95" x2="32.05" y2="17" xlink:href="#linear-gradient"/><clipPath id="clippath"><circle cx="17.23" cy="17" r="17" style="fill:none; stroke-width:0px;"/></clipPath></defs><g style="isolation:isolate;"><g id="Layer_2"><g id="BG"><circle cx="17" cy="17" r="17" style="fill:url(#linear-gradient); stroke-width:0px;"/><circle cx="17" cy="17" r="15.05" style="fill:url(#linear-gradient-2); stroke-width:0px;"/><path d="M24.47,15.58c-.09-.82-1.85-2.21-4.59-.35,0,0,.4-2.38-1.37-4.72-1.76-2.34-1.68-4.59-1.68-4.59,0,0-1.9,1.63.44,5.6,0,0-1.98-1.37-1.94-4.19,0,0-1.59,1.41-.66,3.18,0,0-.35.04-.97-.84,0,0-2.21,4.85,1.81,8.34,0,0-3.79.44-6.57,4.06,0,0,3.26-1.72,4.19-1.9,0,0-5.2,2.78-7.45,5.56,0,0,3.18-1.1,4.9-1.94,0,0-1.63,1.68-3.09,1.94,0,0,3.35-.75,5.6-2.25,0,0-.44.97-1.41,1.41,0,0,3.93-1.85,6.13-4.37,0,0,1.94,3.26,7.76,2.43,0,0-.35,0-1.15-1.06,0,0,1.46,1.28,3.7.18,0,0-2.34-.13-3.75-1.94,0,0,2.69,2.07,4.63.66,0,0-1.46.13-3.4-1.59-1.94-1.72-4.01-2.07-4.01-2.07,0,0,.67-.44,1.46-1.3.78-.86,1.41-.24,1.41-.24Z" style="fill:#fff; stroke-width:0px;"/><circle cx="17.23" cy="17" r="17" style="fill:#f9ed32; stroke-width:0px;"/><g style="clip-path:url(#clippath);"><g style="mix-blend-mode:multiply; opacity:.36;"><path d="M38.6,24.32c0,7.76-6.29,14.05-14.05,14.05s-14.05-6.29-14.05-14.05c0-5.86,3.59-10.89,8.7-12.99,1.65-.68,3.46-1.06,5.35-1.06s3.7.38,5.35,1.06c5.1,2.11,8.7,7.13,8.7,12.99Z" style="fill:#fff; opacity:0; stroke-width:0px;"/><path d="M38.53,24.25c0,7.76-6.29,14.05-14.05,14.05s-14.05-6.29-14.05-14.05c0-5.86,3.59-10.89,8.7-12.99,1.65-.68,3.46-1.06,5.35-1.06s3.7.38,5.35,1.06c5.1,2.11,8.7,7.13,8.7,12.99Z" style="fill:#fbfbfb; opacity:0; stroke-width:0px;"/><path d="M38.46,24.18c0,7.76-6.29,14.05-14.05,14.05s-14.05-6.29-14.05-14.05c0-5.86,3.59-10.89,8.7-12.99,1.65-.68,3.46-1.06,5.35-1.06s3.7.38,5.35,1.06c5.1,2.11,8.7,7.13,8.7,12.99Z" style="fill:#f8f8f7; opacity:.02; stroke-width:0px;"/><path d="M38.38,24.1c0,7.76-6.29,14.05-14.05,14.05s-14.05-6.29-14.05-14.05c0-5.86,3.59-10.89,8.7-12.99,1.65-.68,3.46-1.06,5.35-1.06s3.7.38,5.35,1.06c5.1,2.11,8.7,7.13,8.7,12.99Z" style="fill:#f5f5f4; opacity:.03; stroke-width:0px;"/><path d="M38.31,24.03c0,7.76-6.29,14.05-14.05,14.05s-14.05-6.29-14.05-14.05c0-5.86,3.59-10.89,8.7-12.99,1.65-.68,3.46-1.06,5.35-1.06s3.7.38,5.35,1.06c5.1,2.11,8.7,7.13,8.7,12.99Z" style="fill:#f3f2f2; opacity:.04; stroke-width:0px;"/><path d="M38.24,23.96c0,7.76-6.29,14.05-14.05,14.05s-14.05-6.29-14.05-14.05c0-5.86,3.59-10.89,8.7-12.99,1.65-.68,3.46-1.06,5.35-1.06s3.7.38,5.35,1.06c5.1,2.11,8.7,7.13,8.7,12.99Z" style="fill:#f1efef; opacity:.05; stroke-width:0px;"/><path d="M38.17,23.89c0,7.76-6.29,14.05-14.05,14.05s-14.05-6.29-14.05-14.05c0-5.86,3.59-10.89,8.7-12.99,1.65-.68,3.46-1.06,5.35-1.06s3.7.38,5.35,1.06c5.1,2.11,8.7,7.13,8.7,12.99Z" style="fill:#eeeded; opacity:.06; stroke-width:0px;"/><path d="M38.09,23.81c0,7.76-6.29,14.05-14.05,14.05s-14.05-6.29-14.05-14.05c0-5.86,3.59-10.89,8.7-12.99,1.65-.68,3.46-1.06,5.35-1.06s3.7.38,5.35,1.06c5.1,2.11,8.7,7.13,8.7,12.99Z" style="fill:#ecebeb; opacity:.07; stroke-width:0px;"/><path d="M38.02,23.74c0,7.76-6.29,14.05-14.05,14.05s-14.05-6.29-14.05-14.05c0-5.86,3.59-10.89,8.7-12.99,1.65-.68,3.46-1.06,5.35-1.06s3.7.38,5.35,1.06c5.1,2.11,8.7,7.13,8.7,12.99Z" style="fill:#eae9e8; opacity:.08; stroke-width:0px;"/><path d="M37.95,23.67c0,7.76-6.29,14.05-14.05,14.05s-14.05-6.29-14.05-14.05c0-5.86,3.59-10.89,8.7-12.99,1.65-.68,3.46-1.06,5.35-1.06s3.7.38,5.35,1.06c5.1,2.11,8.7,7.13,8.7,12.99Z" style="fill:#e8e7e6; opacity:.09; stroke-width:0px;"/><path d="M37.88,23.6c0,7.76-6.29,14.05-14.05,14.05s-14.05-6.29-14.05-14.05c0-5.86,3.59-10.89,8.7-12.99,1.65-.68,3.46-1.06,5.35-1.06s3.7.38,5.35,1.06c5.1,2.11,8.7,7.13,8.7,12.99Z" style="fill:#e6e5e4; opacity:.1; stroke-width:0px;"/><path d="M37.8,23.52c0,7.76-6.29,14.05-14.05,14.05s-14.05-6.29-14.05-14.05c0-5.86,3.59-10.89,8.7-12.99,1.65-.68,3.46-1.06,5.35-1.06s3.7.38,5.35,1.06c5.1,2.11,8.7,7.13,8.7,12.99Z" style="fill:#e5e3e2; opacity:.11; stroke-width:0px;"/><path d="M37.73,23.45c0,7.76-6.29,14.05-14.05,14.05s-14.05-6.29-14.05-14.05c0-5.86,3.59-10.89,8.7-12.99,1.65-.68,3.46-1.06,5.35-1.06s3.7.38,5.35,1.06c5.1,2.11,8.7,7.13,8.7,12.99Z" style="fill:#e3e1e1; opacity:.12; stroke-width:0px;"/><path d="M37.66,23.38c0,7.76-6.29,14.05-14.05,14.05s-14.05-6.29-14.05-14.05c0-5.86,3.59-10.89,8.7-12.99,1.65-.68,3.46-1.06,5.35-1.06s3.7.38,5.35,1.06c5.1,2.11,8.7,7.13,8.7,12.99Z" style="fill:#e1dfdf; opacity:.13; stroke-width:0px;"/><path d="M37.59,23.31c0,7.76-6.29,14.05-14.05,14.05s-14.05-6.29-14.05-14.05c0-5.86,3.59-10.89,8.7-12.99,1.65-.68,3.46-1.06,5.35-1.06s3.7.38,5.35,1.06c5.1,2.11,8.7,7.13,8.7,12.99Z" style="fill:#dfdddd; opacity:.14; stroke-width:0px;"/><path d="M37.52,23.23c0,7.76-6.29,14.05-14.05,14.05s-14.05-6.29-14.05-14.05c0-5.86,3.59-10.89,8.7-12.99,1.65-.68,3.46-1.06,5.35-1.06s3.7.38,5.35,1.06c5.1,2.11,8.7,7.13,8.7,12.99Z" style="fill:#dddbdb; opacity:.15; stroke-width:0px;"/><path d="M37.44,23.16c0,7.76-6.29,14.05-14.05,14.05s-14.05-6.29-14.05-14.05c0-5.86,3.59-10.89,8.7-12.99,1.65-.68,3.46-1.06,5.35-1.06s3.7.38,5.35,1.06c5.1,2.11,8.7,7.13,8.7,12.99Z" style="fill:#dbd9d9; opacity:.16; stroke-width:0px;"/><path d="M37.37,23.09c0,7.76-6.29,14.05-14.05,14.05s-14.05-6.29-14.05-14.05c0-5.86,3.59-10.89,8.7-12.99,1.65-.68,3.46-1.06,5.35-1.06s3.7.38,5.35,1.06c5.1,2.11,8.7,7.13,8.7,12.99Z" style="fill:#dad8d7; opacity:.17; stroke-width:0px;"/><path d="M37.3,23.02c0,7.76-6.29,14.05-14.05,14.05s-14.05-6.29-14.05-14.05c0-5.86,3.59-10.89,8.7-12.99,1.65-.68,3.46-1.06,5.35-1.06s3.7.38,5.35,1.06c5.1,2.11,8.7,7.13,8.7,12.99Z" style="fill:#d8d6d6; opacity:.18; stroke-width:0px;"/><path d="M37.23,22.94c0,7.76-6.29,14.05-14.05,14.05s-14.05-6.29-14.05-14.05c0-5.86,3.59-10.89,8.7-12.99,1.65-.68,3.46-1.06,5.35-1.06s3.7.38,5.35,1.06c5.1,2.11,8.7,7.13,8.7,12.99Z" style="fill:#d6d4d4; opacity:.19; stroke-width:0px;"/><path d="M37.15,22.87c0,7.76-6.29,14.05-14.05,14.05s-14.05-6.29-14.05-14.05c0-5.86,3.59-10.89,8.7-12.99,1.65-.68,3.46-1.06,5.35-1.06s3.7.38,5.35,1.06c5.1,2.11,8.7,7.13,8.7,12.99Z" style="fill:#d4d2d2; opacity:.2; stroke-width:0px;"/><path d="M37.08,22.8c0,7.76-6.29,14.05-14.05,14.05s-14.05-6.29-14.05-14.05c0-5.86,3.59-10.89,8.7-12.99,1.65-.68,3.46-1.06,5.35-1.06s3.7.38,5.35,1.06c5.1,2.11,8.7,7.13,8.7,12.99Z" style="fill:#d3d1d0; opacity:.21; stroke-width:0px;"/><path d="M37.01,22.73c0,7.76-6.29,14.05-14.05,14.05s-14.05-6.29-14.05-14.05c0-5.86,3.59-10.89,8.7-12.99,1.65-.68,3.46-1.06,5.35-1.06s3.7.38,5.35,1.06c5.1,2.11,8.7,7.13,8.7,12.99Z" style="fill:#d1cfcf; opacity:.22; stroke-width:0px;"/><path d="M36.94,22.65c0,7.76-6.29,14.05-14.05,14.05s-14.05-6.29-14.05-14.05c0-5.86,3.59-10.89,8.7-12.99,1.65-.68,3.46-1.06,5.35-1.06s3.7.38,5.35,1.06c5.1,2.11,8.7,7.13,8.7,12.99Z" style="fill:#cfcdcd; opacity:.23; stroke-width:0px;"/><path d="M36.86,22.58c0,7.76-6.29,14.05-14.05,14.05s-14.05-6.29-14.05-14.05c0-5.86,3.59-10.89,8.7-12.99,1.65-.68,3.46-1.06,5.35-1.06s3.7.38,5.35,1.06c5.1,2.11,8.7,7.13,8.7,12.99Z" style="fill:#cecbcb; opacity:.24; stroke-width:0px;"/><path d="M36.79,22.51c0,7.76-6.29,14.05-14.05,14.05s-14.05-6.29-14.05-14.05c0-5.86,3.59-10.89,8.7-12.99,1.65-.68,3.46-1.06,5.35-1.06s3.7.38,5.35,1.06c5.1,2.11,8.7,7.13,8.7,12.99Z" style="fill:#cccaca; opacity:.25; stroke-width:0px;"/><path d="M36.72,22.44c0,7.76-6.29,14.05-14.05,14.05s-14.05-6.29-14.05-14.05c0-5.86,3.59-10.89,8.7-12.99,1.65-.68,3.46-1.06,5.35-1.06s3.7.38,5.35,1.06c5.1,2.11,8.7,7.13,8.7,12.99Z" style="fill:#cbc8c8; opacity:.26; stroke-width:0px;"/><path d="M36.65,22.36c0,7.76-6.29,14.05-14.05,14.05s-14.05-6.29-14.05-14.05c0-5.86,3.59-10.89,8.7-12.99,1.65-.68,3.46-1.06,5.35-1.06s3.7.38,5.35,1.06c5.1,2.11,8.7,7.13,8.7,12.99Z" style="fill:#c9c6c6; opacity:.27; stroke-width:0px;"/><path d="M36.57,22.29c0,7.76-6.29,14.05-14.05,14.05s-14.05-6.29-14.05-14.05c0-5.86,3.59-10.89,8.7-12.99,1.65-.68,3.46-1.06,5.35-1.06s3.7.38,5.35,1.06c5.1,2.11,8.7,7.13,8.7,12.99Z" style="fill:#c7c5c5; opacity:.28; stroke-width:0px;"/><path d="M36.5,22.22c0,7.76-6.29,14.05-14.05,14.05s-14.05-6.29-14.05-14.05c0-5.86,3.59-10.89,8.7-12.99,1.65-.68,3.46-1.06,5.35-1.06s3.7.38,5.35,1.06c5.1,2.11,8.7,7.13,8.7,12.99Z" style="fill:#c6c3c3; opacity:.29; stroke-width:0px;"/><path d="M36.43,22.15c0,7.76-6.29,14.05-14.05,14.05s-14.05-6.29-14.05-14.05c0-5.86,3.59-10.89,8.7-12.99,1.65-.68,3.46-1.06,5.35-1.06s3.7.38,5.35,1.06c5.1,2.11,8.7,7.13,8.7,12.99Z" style="fill:#c4c2c1; opacity:.3; stroke-width:0px;"/><path d="M36.36,22.07c0,7.76-6.29,14.05-14.05,14.05s-14.05-6.29-14.05-14.05c0-5.86,3.59-10.89,8.7-12.99,1.65-.68,3.46-1.06,5.35-1.06s3.7.38,5.35,1.06c5.1,2.11,8.7,7.13,8.7,12.99Z" style="fill:#c3c0c0; opacity:.31; stroke-width:0px;"/><path d="M36.28,22c0,7.76-6.29,14.05-14.05,14.05s-14.05-6.29-14.05-14.05c0-5.86,3.59-10.89,8.7-12.99,1.65-.68,3.46-1.06,5.35-1.06s3.7.38,5.35,1.06c5.1,2.11,8.7,7.13,8.7,12.99Z" style="fill:#c1bebe; opacity:.32; stroke-width:0px;"/><path d="M36.21,21.93c0,7.76-6.29,14.05-14.05,14.05s-14.05-6.29-14.05-14.05c0-5.86,3.59-10.89,8.7-12.99,1.65-.68,3.46-1.06,5.35-1.06s3.7.38,5.35,1.06c5.1,2.11,8.7,7.13,8.7,12.99Z" style="fill:#c0bdbd; opacity:.33; stroke-width:0px;"/><path d="M36.14,21.86c0,7.76-6.29,14.05-14.05,14.05s-14.05-6.29-14.05-14.05c0-5.86,3.59-10.89,8.7-12.99,1.65-.68,3.46-1.06,5.35-1.06s3.7.38,5.35,1.06c5.1,2.11,8.7,7.13,8.7,12.99Z" style="fill:#bebbbb; opacity:.34; stroke-width:0px;"/><path d="M36.07,21.78c0,7.76-6.29,14.05-14.05,14.05s-14.05-6.29-14.05-14.05c0-5.86,3.59-10.89,8.7-12.99,1.65-.68,3.46-1.06,5.35-1.06s3.7.38,5.35,1.06c5.1,2.11,8.7,7.13,8.7,12.99Z" style="fill:#bdbaba; opacity:.35; stroke-width:0px;"/><path d="M35.99,21.71c0,7.76-6.29,14.05-14.05,14.05s-14.05-6.29-14.05-14.05c0-5.86,3.59-10.89,8.7-12.99,1.65-.68,3.46-1.06,5.35-1.06s3.7.38,5.35,1.06c5.1,2.11,8.7,7.13,8.7,12.99Z" style="fill:#bbb8b8; opacity:.36; stroke-width:0px;"/><path d="M35.92,21.64c0,7.76-6.29,14.05-14.05,14.05s-14.05-6.29-14.05-14.05c0-5.86,3.59-10.89,8.7-12.99,1.65-.68,3.46-1.06,5.35-1.06s3.7.38,5.35,1.06c5.1,2.11,8.7,7.13,8.7,12.99Z" style="fill:#bab7b7; opacity:.37; stroke-width:0px;"/><path d="M35.85,21.57c0,7.76-6.29,14.05-14.05,14.05s-14.05-6.29-14.05-14.05c0-5.86,3.59-10.89,8.7-12.99,1.65-.68,3.46-1.06,5.35-1.06s3.7.38,5.35,1.06c5.1,2.11,8.7,7.13,8.7,12.99Z" style="fill:#b8b5b5; opacity:.38; stroke-width:0px;"/><path d="M35.78,21.49c0,7.76-6.29,14.05-14.05,14.05s-14.05-6.29-14.05-14.05c0-5.86,3.59-10.89,8.7-12.99,1.65-.68,3.46-1.06,5.35-1.06s3.7.38,5.35,1.06c5.1,2.11,8.7,7.13,8.7,12.99Z" style="fill:#b7b4b4; opacity:.39; stroke-width:0px;"/><path d="M35.7,21.42c0,7.76-6.29,14.05-14.05,14.05s-14.05-6.29-14.05-14.05c0-5.86,3.59-10.89,8.7-12.99,1.65-.68,3.46-1.06,5.35-1.06s3.7.38,5.35,1.06c5.1,2.11,8.7,7.13,8.7,12.99Z" style="fill:#b5b2b2; opacity:.4; stroke-width:0px;"/><path d="M35.63,21.35c0,7.76-6.29,14.05-14.05,14.05s-14.05-6.29-14.05-14.05c0-5.86,3.59-10.89,8.7-12.99,1.65-.68,3.46-1.06,5.35-1.06s3.7.38,5.35,1.06c5.1,2.11,8.7,7.13,8.7,12.99Z" style="fill:#b4b1b1; opacity:.41; stroke-width:0px;"/><path d="M35.56,21.28c0,7.76-6.29,14.05-14.05,14.05s-14.05-6.29-14.05-14.05c0-5.86,3.59-10.89,8.7-12.99,1.65-.68,3.46-1.06,5.35-1.06s3.7.38,5.35,1.06c5.1,2.11,8.7,7.13,8.7,12.99Z" style="fill:#b2afaf; opacity:.42; stroke-width:0px;"/><path d="M35.49,21.2c0,7.76-6.29,14.05-14.05,14.05s-14.05-6.29-14.05-14.05c0-5.86,3.59-10.89,8.7-12.99,1.65-.68,3.46-1.06,5.35-1.06s3.7.38,5.35,1.06c5.1,2.11,8.7,7.13,8.7,12.99Z" style="fill:#b1aeae; opacity:.43; stroke-width:0px;"/><path d="M35.41,21.13c0,7.76-6.29,14.05-14.05,14.05s-14.05-6.29-14.05-14.05c0-5.86,3.59-10.89,8.7-12.99,1.65-.68,3.46-1.06,5.35-1.06s3.7.38,5.35,1.06c5.1,2.11,8.7,7.13,8.7,12.99Z" style="fill:#afacac; opacity:.44; stroke-width:0px;"/><path d="M35.34,21.06c0,7.76-6.29,14.05-14.05,14.05s-14.05-6.29-14.05-14.05c0-5.86,3.59-10.89,8.7-12.99,1.65-.68,3.46-1.06,5.35-1.06s3.7.38,5.35,1.06c5.1,2.11,8.7,7.13,8.7,12.99Z" style="fill:#aeabab; opacity:.45; stroke-width:0px;"/><path d="M35.27,20.99c0,7.76-6.29,14.05-14.05,14.05s-14.05-6.29-14.05-14.05c0-5.86,3.59-10.89,8.7-12.99,1.65-.68,3.46-1.06,5.35-1.06s3.7.38,5.35,1.06c5.1,2.11,8.7,7.13,8.7,12.99Z" style="fill:#aca9a9; opacity:.46; stroke-width:0px;"/><path d="M35.2,20.91c0,7.76-6.29,14.05-14.05,14.05s-14.05-6.29-14.05-14.05c0-5.86,3.59-10.89,8.7-12.99,1.65-.68,3.46-1.06,5.35-1.06s3.7.38,5.35,1.06c5.1,2.11,8.7,7.13,8.7,12.99Z" style="fill:#aba8a8; opacity:.47; stroke-width:0px;"/><path d="M35.12,20.84c0,7.76-6.29,14.05-14.05,14.05s-14.05-6.29-14.05-14.05c0-5.86,3.59-10.89,8.7-12.99,1.65-.68,3.46-1.06,5.35-1.06s3.7.38,5.35,1.06c5.1,2.11,8.7,7.13,8.7,12.99Z" style="fill:#a9a6a6; opacity:.48; stroke-width:0px;"/><path d="M35.05,20.77c0,7.76-6.29,14.05-14.05,14.05s-14.05-6.29-14.05-14.05c0-5.86,3.59-10.89,8.7-12.99,1.65-.68,3.46-1.06,5.35-1.06s3.7.38,5.35,1.06c5.1,2.11,8.7,7.13,8.7,12.99Z" style="fill:#a8a5a5; opacity:.49; stroke-width:0px;"/><path d="M34.98,20.7c0,7.76-6.29,14.05-14.05,14.05s-14.05-6.29-14.05-14.05c0-5.86,3.59-10.89,8.7-12.99,1.65-.68,3.46-1.06,5.35-1.06s3.7.38,5.35,1.06c5.1,2.11,8.7,7.13,8.7,12.99Z" style="fill:#a6a3a4; opacity:.5; stroke-width:0px;"/><path d="M34.91,20.62c0,7.76-6.29,14.05-14.05,14.05s-14.05-6.29-14.05-14.05c0-5.86,3.59-10.89,8.7-12.99,1.65-.68,3.46-1.06,5.35-1.06s3.7.38,5.35,1.06c5.1,2.11,8.7,7.13,8.7,12.99Z" style="fill:#a5a2a2; opacity:.5; stroke-width:0px;"/><path d="M34.83,20.55c0,7.76-6.29,14.05-14.05,14.05s-14.05-6.29-14.05-14.05c0-5.86,3.59-10.89,8.7-12.99,1.65-.68,3.46-1.06,5.35-1.06s3.7.38,5.35,1.06c5.1,2.11,8.7,7.13,8.7,12.99Z" style="fill:#a4a1a1; opacity:.51; stroke-width:0px;"/><path d="M34.76,20.48c0,7.76-6.29,14.05-14.05,14.05s-14.05-6.29-14.05-14.05c0-5.86,3.59-10.89,8.7-12.99,1.65-.68,3.46-1.06,5.35-1.06s3.7.38,5.35,1.06c5.1,2.11,8.7,7.13,8.7,12.99Z" style="fill:#a29f9f; opacity:.52; stroke-width:0px;"/><path d="M34.69,20.41c0,7.76-6.29,14.05-14.05,14.05s-14.05-6.29-14.05-14.05c0-5.86,3.59-10.89,8.7-12.99,1.65-.68,3.46-1.06,5.35-1.06s3.7.38,5.35,1.06c5.1,2.11,8.7,7.13,8.7,12.99Z" style="fill:#a19e9e; opacity:.53; stroke-width:0px;"/><path d="M34.62,20.33c0,7.76-6.29,14.05-14.05,14.05s-14.05-6.29-14.05-14.05c0-5.86,3.59-10.89,8.7-12.99,1.65-.68,3.46-1.06,5.35-1.06s3.7.38,5.35,1.06c5.1,2.11,8.7,7.13,8.7,12.99Z" style="fill:#a09c9d; opacity:.54; stroke-width:0px;"/><path d="M34.54,20.26c0,7.76-6.29,14.05-14.05,14.05s-14.05-6.29-14.05-14.05c0-5.86,3.59-10.89,8.7-12.99,1.65-.68,3.46-1.06,5.35-1.06s3.7.38,5.35,1.06c5.1,2.11,8.7,7.13,8.7,12.99Z" style="fill:#9e9b9b; opacity:.55; stroke-width:0px;"/><path d="M34.47,20.19c0,7.76-6.29,14.05-14.05,14.05s-14.05-6.29-14.05-14.05c0-5.86,3.59-10.89,8.7-12.99,1.65-.68,3.46-1.06,5.35-1.06s3.7.38,5.35,1.06c5.1,2.11,8.7,7.13,8.7,12.99Z" style="fill:#9d9a9a; opacity:.56; stroke-width:0px;"/><path d="M34.4,20.12c0,7.76-6.29,14.05-14.05,14.05s-14.05-6.29-14.05-14.05c0-5.86,3.59-10.89,8.7-12.99,1.65-.68,3.46-1.06,5.35-1.06s3.7.38,5.35,1.06c5.1,2.11,8.7,7.13,8.7,12.99Z" style="fill:#9b9898; opacity:.57; stroke-width:0px;"/><path d="M34.33,20.04c0,7.76-6.29,14.05-14.05,14.05s-14.05-6.29-14.05-14.05c0-5.86,3.59-10.89,8.7-12.99,1.65-.68,3.46-1.06,5.35-1.06s3.7.38,5.35,1.06c5.1,2.11,8.7,7.13,8.7,12.99Z" style="fill:#9a9797; opacity:.58; stroke-width:0px;"/><path d="M34.25,19.97c0,7.76-6.29,14.05-14.05,14.05s-14.05-6.29-14.05-14.05c0-5.86,3.59-10.89,8.7-12.99,1.65-.68,3.46-1.06,5.35-1.06s3.7.38,5.35,1.06c5.1,2.11,8.7,7.13,8.7,12.99Z" style="fill:#999696; opacity:.59; stroke-width:0px;"/><path d="M34.18,19.9c0,7.76-6.29,14.05-14.05,14.05s-14.05-6.29-14.05-14.05c0-5.86,3.59-10.89,8.7-12.99,1.65-.68,3.46-1.06,5.35-1.06s3.7.38,5.35,1.06c5.1,2.11,8.7,7.13,8.7,12.99Z" style="fill:#979494; opacity:.6; stroke-width:0px;"/><path d="M34.11,19.83c0,7.76-6.29,14.05-14.05,14.05s-14.05-6.29-14.05-14.05c0-5.86,3.59-10.89,8.7-12.99,1.65-.68,3.46-1.06,5.35-1.06s3.7.38,5.35,1.06c5.1,2.11,8.7,7.13,8.7,12.99Z" style="fill:#969393; opacity:.61; stroke-width:0px;"/><path d="M34.04,19.75c0,7.76-6.29,14.05-14.05,14.05s-14.05-6.29-14.05-14.05c0-5.86,3.59-10.89,8.7-12.99,1.65-.68,3.46-1.06,5.35-1.06s3.7.38,5.35,1.06c5.1,2.11,8.7,7.13,8.7,12.99Z" style="fill:#959292; opacity:.62; stroke-width:0px;"/><path d="M33.96,19.68c0,7.76-6.29,14.05-14.05,14.05s-14.05-6.29-14.05-14.05c0-5.86,3.59-10.89,8.7-12.99,1.65-.68,3.46-1.06,5.35-1.06s3.7.38,5.35,1.06c5.1,2.11,8.7,7.13,8.7,12.99Z" style="fill:#939091; opacity:.63; stroke-width:0px;"/><path d="M33.89,19.61c0,7.76-6.29,14.05-14.05,14.05s-14.05-6.29-14.05-14.05c0-5.86,3.59-10.89,8.7-12.99,1.65-.68,3.46-1.06,5.35-1.06s3.7.38,5.35,1.06c5.1,2.11,8.7,7.13,8.7,12.99Z" style="fill:#928f8f; opacity:.64; stroke-width:0px;"/><path d="M33.82,19.54c0,7.76-6.29,14.05-14.05,14.05s-14.05-6.29-14.05-14.05c0-5.86,3.59-10.89,8.7-12.99,1.65-.68,3.46-1.06,5.35-1.06s3.7.38,5.35,1.06c5.1,2.11,8.7,7.13,8.7,12.99Z" style="fill:#918e8e; opacity:.65; stroke-width:0px;"/><path d="M33.75,19.46c0,7.76-6.29,14.05-14.05,14.05s-14.05-6.29-14.05-14.05c0-5.86,3.59-10.89,8.7-12.99,1.65-.68,3.46-1.06,5.35-1.06s3.7.38,5.35,1.06c5.1,2.11,8.7,7.13,8.7,12.99Z" style="fill:#8f8d8d; opacity:.66; stroke-width:0px;"/><path d="M33.67,19.39c0,7.76-6.29,14.05-14.05,14.05s-14.05-6.29-14.05-14.05c0-5.86,3.59-10.89,8.7-12.99,1.65-.68,3.46-1.06,5.35-1.06s3.7.38,5.35,1.06c5.1,2.11,8.7,7.13,8.7,12.99Z" style="fill:#8e8b8b; opacity:.67; stroke-width:0px;"/><path d="M33.6,19.32c0,7.76-6.29,14.05-14.05,14.05s-14.05-6.29-14.05-14.05c0-5.86,3.59-10.89,8.7-12.99,1.65-.68,3.46-1.06,5.35-1.06s3.7.38,5.35,1.06c5.1,2.11,8.7,7.13,8.7,12.99Z" style="fill:#8d8a8a; opacity:.68; stroke-width:0px;"/><path d="M33.53,19.25c0,7.76-6.29,14.05-14.05,14.05s-14.05-6.29-14.05-14.05c0-5.86,3.59-10.89,8.7-12.99,1.65-.68,3.46-1.06,5.35-1.06s3.7.38,5.35,1.06c5.1,2.11,8.7,7.13,8.7,12.99Z" style="fill:#8b8989; opacity:.69; stroke-width:0px;"/><path d="M33.46,19.17c0,7.76-6.29,14.05-14.05,14.05s-14.05-6.29-14.05-14.05c0-5.86,3.59-10.89,8.7-12.99,1.65-.68,3.46-1.06,5.35-1.06s3.7.38,5.35,1.06c5.1,2.11,8.7,7.13,8.7,12.99Z" style="fill:#8a8888; opacity:.7; stroke-width:0px;"/><path d="M33.38,19.1c0,7.76-6.29,14.05-14.05,14.05s-14.05-6.29-14.05-14.05c0-5.86,3.59-10.89,8.7-12.99,1.65-.68,3.46-1.06,5.35-1.06s3.7.38,5.35,1.06c5.1,2.11,8.7,7.13,8.7,12.99Z" style="fill:#898686; opacity:.71; stroke-width:0px;"/><path d="M33.31,19.03c0,7.76-6.29,14.05-14.05,14.05s-14.05-6.29-14.05-14.05c0-5.86,3.59-10.89,8.7-12.99,1.65-.68,3.46-1.06,5.35-1.06s3.7.38,5.35,1.06c5.1,2.11,8.7,7.13,8.7,12.99Z" style="fill:#888585; opacity:.72; stroke-width:0px;"/><path d="M33.24,18.96c0,7.76-6.29,14.05-14.05,14.05s-14.05-6.29-14.05-14.05c0-5.86,3.59-10.89,8.7-12.99,1.65-.68,3.46-1.06,5.35-1.06s3.7.38,5.35,1.06c5.1,2.11,8.7,7.13,8.7,12.99Z" style="fill:#868484; opacity:.73; stroke-width:0px;"/><path d="M33.17,18.88c0,7.76-6.29,14.05-14.05,14.05s-14.05-6.29-14.05-14.05c0-5.86,3.59-10.89,8.7-12.99,1.65-.68,3.46-1.06,5.35-1.06s3.7.38,5.35,1.06c5.1,2.11,8.7,7.13,8.7,12.99Z" style="fill:#858383; opacity:.74; stroke-width:0px;"/><path d="M33.09,18.81c0,7.76-6.29,14.05-14.05,14.05s-14.05-6.29-14.05-14.05c0-5.86,3.59-10.89,8.7-12.99,1.65-.68,3.46-1.06,5.35-1.06s3.7.38,5.35,1.06c5.1,2.11,8.7,7.13,8.7,12.99Z" style="fill:#848282; opacity:.75; stroke-width:0px;"/><path d="M33.02,18.74c0,7.76-6.29,14.05-14.05,14.05s-14.05-6.29-14.05-14.05c0-5.86,3.59-10.89,8.7-12.99,1.65-.68,3.46-1.06,5.35-1.06s3.7.38,5.35,1.06c5.1,2.11,8.7,7.13,8.7,12.99Z" style="fill:#838080; opacity:.76; stroke-width:0px;"/><path d="M32.95,18.67c0,7.76-6.29,14.05-14.05,14.05s-14.05-6.29-14.05-14.05c0-5.86,3.59-10.89,8.7-12.99,1.65-.68,3.46-1.06,5.35-1.06s3.7.38,5.35,1.06c5.1,2.11,8.7,7.13,8.7,12.99Z" style="fill:#827f7f; opacity:.77; stroke-width:0px;"/><path d="M32.88,18.59c0,7.76-6.29,14.05-14.05,14.05s-14.05-6.29-14.05-14.05c0-5.86,3.59-10.89,8.7-12.99,1.65-.68,3.46-1.06,5.35-1.06s3.7.38,5.35,1.06c5.1,2.11,8.7,7.13,8.7,12.99Z" style="fill:#807e7e; opacity:.78; stroke-width:0px;"/><path d="M32.8,18.52c0,7.76-6.29,14.05-14.05,14.05s-14.05-6.29-14.05-14.05c0-5.86,3.59-10.89,8.7-12.99,1.65-.68,3.46-1.06,5.35-1.06s3.7.38,5.35,1.06c5.1,2.11,8.7,7.13,8.7,12.99Z" style="fill:#7f7d7d; opacity:.79; stroke-width:0px;"/><path d="M32.73,18.45c0,7.76-6.29,14.05-14.05,14.05s-14.05-6.29-14.05-14.05c0-5.86,3.59-10.89,8.7-12.99,1.65-.68,3.46-1.06,5.35-1.06s3.7.38,5.35,1.06c5.1,2.11,8.7,7.13,8.7,12.99Z" style="fill:#7e7c7c; opacity:.8; stroke-width:0px;"/><path d="M32.66,18.38c0,7.76-6.29,14.05-14.05,14.05s-14.05-6.29-14.05-14.05c0-5.86,3.59-10.89,8.7-12.99,1.65-.68,3.46-1.06,5.35-1.06s3.7.38,5.35,1.06c5.1,2.11,8.7,7.13,8.7,12.99Z" style="fill:#7d7b7b; opacity:.81; stroke-width:0px;"/><path d="M32.59,18.3c0,7.76-6.29,14.05-14.05,14.05s-14.05-6.29-14.05-14.05c0-5.86,3.59-10.89,8.7-12.99,1.65-.68,3.46-1.06,5.35-1.06s3.7.38,5.35,1.06c5.1,2.11,8.7,7.13,8.7,12.99Z" style="fill:#7c7a7a; opacity:.82; stroke-width:0px;"/><path d="M32.51,18.23c0,7.76-6.29,14.05-14.05,14.05s-14.05-6.29-14.05-14.05c0-5.86,3.59-10.89,8.7-12.99,1.65-.68,3.46-1.06,5.35-1.06s3.7.38,5.35,1.06c5.1,2.11,8.7,7.13,8.7,12.99Z" style="fill:#7a7879; opacity:.83; stroke-width:0px;"/><path d="M32.44,18.16c0,7.76-6.29,14.05-14.05,14.05s-14.05-6.29-14.05-14.05c0-5.86,3.59-10.89,8.7-12.99,1.65-.68,3.46-1.06,5.35-1.06s3.7.38,5.35,1.06c5.1,2.11,8.7,7.13,8.7,12.99Z" style="fill:#797777; opacity:.84; stroke-width:0px;"/><path d="M32.37,18.09c0,7.76-6.29,14.05-14.05,14.05s-14.05-6.29-14.05-14.05c0-5.86,3.59-10.89,8.7-12.99,1.65-.68,3.46-1.06,5.35-1.06s3.7.38,5.35,1.06c5.1,2.11,8.7,7.13,8.7,12.99Z" style="fill:#787676; opacity:.85; stroke-width:0px;"/><path d="M32.3,18.01c0,7.76-6.29,14.05-14.05,14.05s-14.05-6.29-14.05-14.05c0-5.86,3.59-10.89,8.7-12.99,1.65-.68,3.46-1.06,5.35-1.06s3.7.38,5.35,1.06c5.1,2.11,8.7,7.13,8.7,12.99Z" style="fill:#777575; opacity:.86; stroke-width:0px;"/><path d="M32.22,17.94c0,7.76-6.29,14.05-14.05,14.05s-14.05-6.29-14.05-14.05c0-5.86,3.59-10.89,8.7-12.99,1.65-.68,3.46-1.06,5.35-1.06s3.7.38,5.35,1.06c5.1,2.11,8.7,7.13,8.7,12.99Z" style="fill:#767474; opacity:.87; stroke-width:0px;"/><path d="M32.15,17.87c0,7.76-6.29,14.05-14.05,14.05s-14.05-6.29-14.05-14.05c0-5.86,3.59-10.89,8.7-12.99,1.65-.68,3.46-1.06,5.35-1.06s3.7.38,5.35,1.06c5.1,2.11,8.7,7.13,8.7,12.99Z" style="fill:#757373; opacity:.88; stroke-width:0px;"/><path d="M32.08,17.8c0,7.76-6.29,14.05-14.05,14.05S3.98,25.56,3.98,17.8c0-5.86,3.59-10.89,8.7-12.99,1.65-.68,3.46-1.06,5.35-1.06s3.7.38,5.35,1.06c5.1,2.11,8.7,7.13,8.7,12.99Z" style="fill:#737272; opacity:.89; stroke-width:0px;"/><path d="M32.01,17.72c0,7.76-6.29,14.05-14.05,14.05S3.91,25.48,3.91,17.72c0-5.86,3.59-10.89,8.7-12.99,1.65-.68,3.46-1.06,5.35-1.06s3.7.38,5.35,1.06c5.1,2.11,8.7,7.13,8.7,12.99Z" style="fill:#727171; opacity:.9; stroke-width:0px;"/><path d="M31.93,17.65c0,7.76-6.29,14.05-14.05,14.05S3.83,25.41,3.83,17.65c0-5.86,3.59-10.89,8.7-12.99,1.65-.68,3.46-1.06,5.35-1.06s3.7.38,5.35,1.06c5.1,2.11,8.7,7.13,8.7,12.99Z" style="fill:#717070; opacity:.91; stroke-width:0px;"/><path d="M31.86,17.58c0,7.76-6.29,14.05-14.05,14.05S3.76,25.34,3.76,17.58c0-5.86,3.59-10.89,8.7-12.99,1.65-.68,3.46-1.06,5.35-1.06s3.7.38,5.35,1.06c5.1,2.11,8.7,7.13,8.7,12.99Z" style="fill:#706f6f; opacity:.92; stroke-width:0px;"/><path d="M31.79,17.51c0,7.76-6.29,14.05-14.05,14.05S3.69,25.27,3.69,17.51c0-5.86,3.59-10.89,8.7-12.99,1.65-.68,3.46-1.06,5.35-1.06s3.7.38,5.35,1.06c5.1,2.11,8.7,7.13,8.7,12.99Z" style="fill:#6f6e6e; opacity:.93; stroke-width:0px;"/><path d="M31.72,17.43c0,7.76-6.29,14.05-14.05,14.05S3.62,25.19,3.62,17.43c0-5.86,3.59-10.89,8.7-12.99,1.65-.68,3.46-1.06,5.35-1.06s3.7.38,5.35,1.06c5.1,2.11,8.7,7.13,8.7,12.99Z" style="fill:#6e6d6d; opacity:.94; stroke-width:0px;"/><path d="M31.64,17.36c0,7.76-6.29,14.05-14.05,14.05S3.54,25.12,3.54,17.36c0-5.86,3.59-10.89,8.7-12.99,1.65-.68,3.46-1.06,5.35-1.06s3.7.38,5.35,1.06c5.1,2.11,8.7,7.13,8.7,12.99Z" style="fill:#6d6c6c; opacity:.95; stroke-width:0px;"/><path d="M31.57,17.29c0,7.76-6.29,14.05-14.05,14.05S3.47,25.05,3.47,17.29c0-5.86,3.59-10.89,8.7-12.99,1.65-.68,3.46-1.06,5.35-1.06s3.7.38,5.35,1.06c5.1,2.11,8.7,7.13,8.7,12.99Z" style="fill:#6b6b6b; opacity:.96; stroke-width:0px;"/><path d="M31.5,17.22c0,7.76-6.29,14.05-14.05,14.05S3.4,24.98,3.4,17.22c0-5.86,3.59-10.89,8.7-12.99,1.65-.68,3.46-1.06,5.35-1.06s3.7.38,5.35,1.06c5.1,2.11,8.7,7.13,8.7,12.99Z" style="fill:#6a6a6a; opacity:.97; stroke-width:0px;"/><path d="M31.43,17.15c0,7.76-6.29,14.05-14.05,14.05S3.33,24.9,3.33,17.15c0-5.86,3.59-10.89,8.7-12.99,1.65-.68,3.46-1.06,5.35-1.06s3.7.38,5.35,1.06c5.1,2.11,8.7,7.13,8.7,12.99Z" style="fill:#696969; opacity:.98; stroke-width:0px;"/><path d="M31.35,17.07c0,7.76-6.29,14.05-14.05,14.05S3.25,24.83,3.25,17.07c0-5.86,3.59-10.89,8.7-12.99,1.65-.68,3.46-1.06,5.35-1.06s3.7.38,5.35,1.06c5.1,2.11,8.7,7.13,8.7,12.99Z" style="fill:#686868; opacity:.99; stroke-width:0px;"/><path d="M31.28,17c0,7.76-6.29,14.05-14.05,14.05S3.18,24.76,3.18,17c0-5.86,3.59-10.89,8.7-12.99,1.65-.68,3.46-1.06,5.35-1.06s3.7.38,5.35,1.06c5.1,2.11,8.7,7.13,8.7,12.99Z" style="fill:#676767; stroke-width:0px;"/></g><path d="M31.28,17c0,7.76-6.29,14.05-14.05,14.05S3.18,24.76,3.18,17c0-5.86,3.59-10.89,8.7-12.99,1.65-.68,3.46-1.06,5.35-1.06s3.7.38,5.35,1.06c5.1,2.11,8.7,7.13,8.7,12.99Z" style="fill:#fff; stroke-width:0px;"/><path d="M16.98,33.26c-.17,0-.34,0-.52-.02v-.2c.18,0,.35.01.52.02v.2ZM17.5,33.26v-.2c.17,0,.34,0,.51-.02v.2c-.16,0-.33.01-.51.02ZM15.95,33.21c-.17-.01-.34-.03-.51-.05l.02-.2c.17.02.34.03.51.05l-.02.2ZM18.53,33.21l-.02-.2c.17-.01.34-.03.51-.05l.02.2c-.17.02-.34.04-.51.05ZM14.92,33.1c-.17-.02-.34-.05-.51-.08l.03-.2c.17.03.34.06.5.08l-.03.2ZM19.55,33.1l-.03-.2c.17-.02.34-.05.5-.08l.03.2c-.17.03-.34.06-.51.08ZM13.91,32.92c-.17-.03-.34-.07-.5-.11l.05-.19c.16.04.33.08.5.11l-.04.19ZM20.57,32.92l-.04-.19c.17-.03.33-.07.5-.11l.05.19c-.17.04-.34.08-.5.11ZM12.9,32.68c-.17-.05-.33-.09-.5-.14l.06-.19c.16.05.33.1.49.14l-.05.19ZM21.57,32.68l-.05-.19c.16-.05.33-.09.49-.14l.06.19c-.16.05-.33.1-.5.15ZM11.92,32.37c-.16-.06-.33-.12-.49-.18l.07-.19c.16.06.32.12.48.17l-.06.19ZM22.56,32.37l-.07-.19c.16-.06.32-.11.48-.17l.07.19c-.16.06-.32.12-.48.18ZM10.95,32c-.16-.07-.32-.14-.47-.21l.08-.18c.15.07.31.14.47.2l-.08.18ZM23.52,32l-.08-.18c.16-.07.31-.13.47-.2l.08.18c-.16.07-.31.14-.47.21ZM10.01,31.57c-.15-.08-.31-.16-.46-.24l.09-.18c.15.08.3.16.45.23l-.09.18ZM24.45,31.57l-.09-.18c.15-.07.3-.15.45-.23l.09.18c-.15.08-.3.16-.46.24ZM25.36,31.09l-.1-.17c.15-.08.29-.17.44-.26l.1.17c-.15.09-.29.18-.44.26ZM9.1,31.09c-.15-.09-.3-.18-.44-.27l.1-.17c.14.09.29.18.44.26l-.1.17ZM26.24,30.54l-.11-.17c.14-.09.28-.19.42-.29l.12.16c-.14.1-.28.2-.42.29ZM8.22,30.54c-.14-.1-.29-.19-.43-.29l.12-.16c.14.1.28.2.42.29l-.11.17ZM27.08,29.94l-.12-.16c.13-.1.27-.21.4-.31l.13.15c-.13.11-.27.22-.41.32ZM7.38,29.94c-.14-.1-.27-.21-.41-.32l.13-.15c.13.11.27.21.4.32l-.12.16ZM27.88,29.29l-.13-.15c.13-.11.26-.22.38-.34l.13.15c-.13.12-.26.23-.38.34ZM6.58,29.29c-.13-.11-.26-.23-.38-.34l.13-.15c.12.11.25.23.38.34l-.13.15ZM28.63,28.59l-.14-.14c.12-.12.24-.24.36-.36l.14.14c-.12.12-.24.25-.36.37ZM5.82,28.59c-.12-.12-.24-.24-.36-.37l.14-.14c.12.12.24.24.36.36l-.14.14ZM29.35,27.85l-.15-.13c.11-.13.23-.26.33-.39l.15.13c-.11.13-.22.26-.34.39ZM5.11,27.84c-.11-.13-.23-.26-.34-.39l.15-.13c.11.13.22.26.33.38l-.15.13ZM30.01,27.06l-.16-.12c.1-.13.21-.27.31-.41l.16.12c-.1.14-.21.28-.31.41ZM4.45,27.05c-.11-.13-.21-.27-.31-.41l.16-.12c.1.14.2.27.31.4l-.16.12ZM30.62,26.23l-.16-.11c.1-.14.19-.28.28-.42l.17.11c-.09.14-.19.29-.29.43ZM3.84,26.22c-.1-.14-.19-.29-.29-.43l.17-.11c.09.14.19.28.28.42l-.16.11ZM31.18,25.36l-.17-.1c.09-.15.17-.29.26-.44l.17.1c-.08.15-.17.3-.26.45ZM3.28,25.36c-.09-.15-.17-.3-.26-.45l.17-.1c.08.15.17.3.25.44l-.17.1ZM2.78,24.46c-.08-.15-.16-.31-.23-.46l.18-.09c.07.15.15.31.23.46l-.18.09ZM31.69,24.46l-.18-.09c.08-.15.15-.3.23-.46l.18.09c-.07.15-.15.31-.23.46ZM2.33,23.53c-.07-.16-.14-.32-.2-.47l.18-.07c.06.16.13.31.2.47l-.18.08ZM32.13,23.52l-.18-.08c.07-.16.13-.31.2-.47l.18.07c-.06.16-.13.32-.2.48ZM1.95,22.57c-.06-.16-.12-.32-.17-.49l.19-.06c.05.16.11.32.17.48l-.19.07ZM32.52,22.56l-.19-.07c.06-.16.11-.32.17-.48l.19.06c-.05.16-.11.33-.17.49ZM1.63,21.59c-.05-.16-.09-.33-.14-.5l.19-.05c.04.16.09.33.14.49l-.19.06ZM32.84,21.58l-.19-.06c.05-.16.09-.33.14-.49l.19.05c-.04.17-.09.33-.14.5ZM1.37,20.59c-.04-.17-.07-.34-.11-.51l.2-.04c.03.17.07.33.1.5l-.19.04ZM33.1,20.58l-.19-.04c.04-.16.07-.33.1-.5l.2.04c-.03.17-.07.34-.11.51ZM1.17,19.58c-.03-.17-.05-.34-.07-.51l.2-.03c.02.17.05.34.07.5l-.2.03ZM33.29,19.57l-.2-.03c.03-.17.05-.34.07-.5l.2.02c-.02.17-.05.34-.07.51ZM1.04,18.56c-.02-.17-.03-.34-.04-.51h.2c.01.16.02.33.04.5l-.2.02ZM33.42,18.55l-.2-.02c.02-.17.03-.34.04-.51h.2c-.01.18-.02.36-.04.53ZM.98,17.53c0-.17,0-.34,0-.52h.2c0,.17,0,.34,0,.51h-.2ZM33.48,17.52h-.2c0-.18,0-.35,0-.52v-.02s.2,0,.2,0v.02c0,.17,0,.34,0,.52ZM1.18,16.5h-.2c0-.18.01-.35.02-.52h.2c-.01.18-.02.35-.02.52ZM33.29,16.47c0-.17-.01-.34-.02-.51h.2c.01.16.02.33.02.5h-.2ZM1.24,15.48l-.2-.02c.02-.17.03-.34.06-.51l.2.02c-.02.17-.04.34-.06.51ZM33.22,15.46c-.02-.17-.03-.34-.06-.51l.2-.03c.02.17.04.34.06.51l-.2.02ZM1.37,14.47l-.2-.03c.03-.17.06-.34.09-.51l.2.04c-.03.17-.06.33-.09.5ZM33.09,14.45c-.03-.17-.06-.34-.09-.5l.2-.04c.03.17.06.34.09.51l-.2.03ZM1.56,13.47l-.19-.04c.04-.17.08-.34.12-.5l.19.05c-.04.16-.08.33-.12.5ZM32.9,13.44c-.04-.16-.08-.33-.12-.5l.19-.05c.04.17.08.33.12.5l-.19.04ZM1.81,12.48l-.19-.06c.05-.16.1-.33.15-.49l.19.06c-.05.16-.1.33-.15.49ZM32.64,12.46c-.05-.16-.1-.33-.15-.49l.19-.06c.05.16.1.33.15.49l-.19.06ZM2.13,11.51l-.19-.07c.06-.16.12-.32.18-.48l.18.07c-.06.16-.12.32-.18.48ZM32.33,11.49c-.06-.16-.12-.32-.18-.47l.18-.07c.06.16.13.32.18.48l-.19.07ZM2.51,10.56l-.18-.08c.07-.16.14-.32.21-.47l.18.09c-.07.15-.14.31-.21.46ZM31.95,10.55c-.07-.15-.14-.31-.21-.46l.18-.09c.07.15.15.31.21.47l-.18.08ZM2.95,9.64l-.18-.09c.08-.15.16-.31.24-.46l.17.1c-.08.15-.16.3-.24.45ZM31.51,9.63c-.08-.15-.16-.3-.24-.45l.17-.1c.08.15.17.3.24.45l-.18.09ZM3.45,8.75l-.17-.1c.09-.15.18-.29.27-.44l.17.11c-.09.14-.18.29-.27.43ZM31.01,8.74c-.09-.14-.18-.29-.27-.43l.17-.11c.09.14.18.29.27.44l-.17.1ZM4,7.89l-.16-.11c.1-.14.2-.28.3-.42l.16.12c-.1.14-.2.28-.3.42ZM30.46,7.89c-.1-.14-.2-.28-.3-.41l.16-.12c.1.14.2.28.3.42l-.16.11ZM4.6,7.07l-.16-.12c.11-.13.22-.27.33-.4l.15.13c-.11.13-.22.26-.32.4ZM29.86,7.07c-.1-.13-.21-.27-.32-.4l.15-.13c.11.13.22.27.33.4l-.16.12ZM5.26,6.29l-.15-.13c.11-.13.23-.26.35-.38l.14.14c-.12.12-.23.25-.35.37ZM29.2,6.29c-.11-.13-.23-.25-.35-.37l.14-.14c.12.12.24.25.35.38l-.15.13ZM5.96,5.55l-.14-.14c.12-.12.25-.24.37-.36l.13.15c-.12.11-.25.23-.37.35ZM28.5,5.55c-.12-.12-.24-.24-.37-.35l.13-.15c.13.12.25.24.37.36l-.14.14ZM6.71,4.86l-.13-.15c.13-.11.26-.22.39-.33l.13.15c-.13.11-.26.22-.39.33ZM27.75,4.86c-.13-.11-.26-.22-.39-.33l.13-.15c.13.11.27.22.4.33l-.13.15ZM7.5,4.22l-.12-.16c.14-.1.28-.21.41-.31l.12.16c-.14.1-.28.2-.41.3ZM26.96,4.21c-.13-.1-.27-.2-.41-.3l.12-.16c.14.1.28.2.42.31l-.12.16ZM8.33,3.63l-.11-.17c.14-.09.29-.19.43-.28l.11.17c-.14.09-.29.18-.43.28ZM26.13,3.62c-.14-.09-.29-.19-.43-.28l.1-.17c.15.09.29.18.43.28l-.11.17ZM9.19,3.09l-.1-.17c.15-.09.3-.17.45-.25l.09.18c-.15.08-.3.16-.44.25ZM25.26,3.08c-.15-.08-.3-.17-.45-.25l.09-.18c.15.08.3.17.45.25l-.1.17ZM10.09,2.61l-.09-.18c.15-.08.31-.15.46-.22l.08.18c-.15.07-.31.14-.46.22ZM24.36,2.6c-.15-.08-.31-.15-.46-.22l.08-.18c.16.07.31.15.47.22l-.09.18ZM11.02,2.18l-.08-.18s.06-.03.1-.04c.13-.05.26-.1.38-.15l.07.19c-.13.05-.25.1-.38.15-.03.01-.06.03-.09.04ZM23.43,2.18s-.05-.02-.08-.03c-.13-.05-.26-.11-.39-.16l.07-.19c.13.05.27.1.4.16.03.01.05.02.08.03l-.08.18ZM11.97,1.82l-.07-.19c.16-.06.33-.11.49-.16l.06.19c-.16.05-.32.1-.48.16ZM22.48,1.81c-.16-.06-.32-.11-.48-.16l.06-.19c.16.05.33.1.49.16l-.06.19ZM12.94,1.52l-.05-.19c.16-.05.33-.09.5-.13l.05.19c-.16.04-.33.08-.49.13ZM21.5,1.51c-.16-.04-.33-.09-.49-.13l.05-.19c.17.04.33.08.5.13l-.05.19ZM13.93,1.28l-.04-.19c.17-.03.34-.07.51-.1l.03.2c-.17.03-.33.06-.5.1ZM20.51,1.27c-.17-.03-.33-.07-.5-.1l.03-.2c.17.03.34.06.51.1l-.04.19ZM14.94,1.1l-.03-.2c.17-.02.34-.05.51-.06l.02.2c-.17.02-.34.04-.51.06ZM19.51,1.1c-.17-.02-.34-.05-.51-.06l.02-.2c.17.02.34.04.51.06l-.03.2ZM15.95.99l-.02-.2c.17-.01.34-.02.51-.03v.2c-.16,0-.33.02-.5.03ZM18.49.99c-.17-.01-.34-.02-.51-.03v-.2c.18,0,.35.02.52.03l-.02.2ZM16.97.94v-.2c.17,0,.34,0,.51,0v.2c-.17,0-.34,0-.51,0Z" style="fill:#989898; stroke-width:0px;"/><path d="M17.23,34v-1.68c8.45,0,15.32-6.87,15.32-15.32,0-6.23-3.72-11.8-9.49-14.17-1.85-.76-3.82-1.15-5.84-1.15V0c2.24,0,4.42.43,6.48,1.28,3.08,1.27,5.7,3.4,7.58,6.15,1.93,2.83,2.95,6.13,2.95,9.57,0,2.29-.45,4.52-1.34,6.62-.86,2.02-2.08,3.84-3.64,5.4-1.56,1.56-3.38,2.79-5.4,3.64-2.1.89-4.32,1.34-6.62,1.34Z" style="fill:#fbb03c; stroke-width:0px;"/><path d="M2.89,26.13C1.15,23.4.23,20.25.23,17s.92-6.41,2.66-9.13l1.41.9c-1.57,2.46-2.39,5.3-2.39,8.23s.83,5.77,2.4,8.23l-1.41.9Z" style="fill:#fbb03c; stroke-width:0px;"/><path d="M17.68,14.61c-.12-.1-.29-.08-.39.04-.1.12-.08.29.04.39.04.03.08.07.12.1.05.05.12.08.19.08s.14-.03.19-.08c.11-.11.11-.28,0-.39-.05-.05-.1-.1-.16-.14Z" style="fill:#818181; stroke-width:0px;"/><path d="M16.73,14.18c-.64-.1-1.29.11-1.74.57-.79.79-.79,2.07,0,2.85.05.05.12.08.19.08s.14-.03.19-.08c.11-.11.11-.28,0-.39-.57-.57-.57-1.51,0-2.08.33-.33.81-.48,1.27-.41.15.03.29-.08.31-.23.02-.15-.08-.29-.23-.31Z" style="fill:#818181; stroke-width:0px;"/><path d="M20.98,20.36l-2.38-2.11c.51-.54.83-1.27.83-2.07,0-1.66-1.35-3.01-3.01-3.01s-3.01,1.35-3.01,3.01,1.35,3.01,3.01,3.01c.66,0,1.28-.22,1.77-.58l2.43,2.16c.05.05.12.07.18.07.08,0,.15-.03.2-.09.1-.11.09-.29-.02-.39ZM13.94,16.18c0-1.36,1.11-2.47,2.47-2.47s2.47,1.11,2.47,2.47-1.11,2.47-2.47,2.47-2.47-1.11-2.47-2.47Z" style="fill:#818181; stroke-width:0px;"/></g></g></g></g></svg>