<?xml version="1.0" encoding="UTF-8"?><svg id="Layer_2" xmlns="http://www.w3.org/2000/svg" viewBox="0 0 34 34"><g id="BG"><path d="M17,33.26c8.98,0,16.26-7.28,16.26-16.26S25.98.74,17,.74.74,8.02.74,17s7.28,16.26,16.26,16.26h0Z" style="fill:#d1d3d4; fill-rule:evenodd; stroke-width:0px;"/><path d="M17,32.51c4.28,0,8.16-1.74,10.97-4.54,2.81-2.81,4.54-6.69,4.54-10.97s-1.74-8.16-4.54-10.97c-2.81-2.81-6.68-4.54-10.97-4.54s-8.16,1.74-10.97,4.54c-2.81,2.81-4.54,6.68-4.54,10.97s1.74,8.16,4.54,10.97c2.81,2.81,6.68,4.54,10.97,4.54h0ZM29.02,29.02c-3.08,3.08-7.33,4.98-12.02,4.98s-8.94-1.9-12.02-4.98C1.9,25.94,0,21.69,0,17S1.9,8.06,4.98,4.98C8.06,1.9,12.31,0,17,0s8.94,1.9,12.02,4.98c3.08,3.08,4.98,7.33,4.98,12.02s-1.9,8.94-4.98,12.02h0Z" style="fill:#fff; stroke-width:0px;"/><path d="M17,26.71c5.36,0,9.71-4.35,9.71-9.71s-4.35-9.71-9.71-9.71-9.71,4.35-9.71,9.71,4.35,9.71,9.71,9.71h0Z" style="fill:#808285; fill-rule:evenodd; stroke-width:0px;"/><path d="M10.32,24.04h-.23v-15.86l6.97,8.93,6.88-8.83v14.66c.02.44.23.75.62.93.1.05.24.09.43.14h-2.29c-.09,0-.14,0-.15-.01-.19-.03-.36-.11-.5-.23-.2-.17-.31-.38-.34-.62v-.06s0-11.57,0-11.57l-5.92,7.59-5.46-7v11.92Z" style="fill:#be1e2d; stroke-width:0px;"/><path d="M9.23,25.82h-.23v-15.86l6.97,8.93,6.88-8.83v14.66c.02.44.23.75.62.93.1.05.24.09.43.14h-2.29c-.09,0-.14,0-.15-.01-.19-.03-.36-.11-.5-.23-.2-.17-.31-.38-.34-.62v-.06s0-11.57,0-11.57l-5.92,7.59-5.46-7v11.92Z" style="fill:#ed1c24; stroke-width:0px;"/></g></svg>