<?xml version="1.0" encoding="UTF-8"?><svg id="Layer_2" xmlns="http://www.w3.org/2000/svg" viewBox="0 0 34 34"><g id="BG"><circle cx="17" cy="17" r="17" style="fill:#fff; stroke-width:0px;"/><path d="M15.55,10.73l.4,1.33c-3.66,1.14-5.74,5.12-4.63,8.87,1.11,3.75,5,5.87,8.66,4.73l.39,1.33c-4.38,1.36-9.03-1.18-10.36-5.66-1.33-4.48,1.15-9.24,5.53-10.6Z" style="fill:#00aaa1; stroke-width:0px;"/><path d="M27.9,10.52l-2.43,2.14c-3.3-3.93-9.12-4.39-12.96-1.01-3.84,3.38-4.29,9.33-.98,13.27l-2.43,2.14c-4.45-5.31-3.86-13.33,1.33-17.89,5.19-4.56,13.03-3.95,17.48,1.36Z" style="fill:#bcbec0; stroke-width:0px;"/><path d="M12.1,16.92l.52.15c-.9,3.14.87,6.44,3.94,7.36,3.07.92,6.3-.89,7.19-4.03l.52.16c-.98,3.43-4.51,5.41-7.86,4.4-3.35-1-5.29-4.61-4.3-8.05Z" style="fill:#f9d506; stroke-width:0px;"/><path d="M23.23,16.58l-.82.29c.81,2.38-.42,4.99-2.74,5.82-2.32.83-4.87-.43-5.68-2.8l-.82.29c.97,2.84,4.02,4.35,6.8,3.35,2.78-.99,4.25-4.11,3.28-6.95Z" style="fill:#00aaa1; stroke-width:0px;"/><path d="M19.36,9.86l-.18,2.33c3.6.29,6.29,3.52,6.01,7.2-.28,3.68-3.44,6.44-7.04,6.15l-.18,2.33c4.85.39,9.11-3.33,9.49-8.3.38-4.97-3.25-9.32-8.11-9.71Z" style="fill:#bcbec0; stroke-width:0px;"/><path d="M20.7,21.03l-.23-.18c-1.05,1.4-3.02,1.67-4.39.59-1.37-1.08-1.63-3.09-.58-4.5l-.23-.18c-1.15,1.53-.87,3.74.63,4.92,1.5,1.18,3.65.89,4.8-.65Z" style="fill:#f9d506; stroke-width:0px;"/></g></svg>