<?xml version="1.0" encoding="UTF-8"?><svg id="Layer_2" xmlns="http://www.w3.org/2000/svg" xmlns:xlink="http://www.w3.org/1999/xlink" viewBox="0 0 34 34"><defs><linearGradient id="linear-gradient" x1="13.95" y1="14.29" x2="32.93" y2="31.8" gradientUnits="userSpaceOnUse"><stop offset="0" stop-color="#1e5128"/><stop offset=".06" stop-color="#1e572a"/><stop offset=".47" stop-color="#227d3a"/><stop offset=".8" stop-color="#259544"/><stop offset="1" stop-color="#269e48"/></linearGradient></defs><g id="BG"><circle cx="17" cy="17" r="17" transform="translate(-3.92 28.85) rotate(-74.52)" style="fill:#1c723a; stroke-width:0px;"/><circle cx="17" cy="17" r="16.32" transform="translate(-4.5 6.25) rotate(-18.43)" style="fill:#269e48; stroke-width:0px;"/><path d="M17.95,33.29c8.32-.48,14.96-7.18,15.36-15.52l-12.21-12.21-10.21,18.84,4.05,4.05-1.07.75,4.08,4.08Z" style="fill:url(#linear-gradient); stroke-width:0px;"/><rect x="22.22" y="11.28" width=".01" height="0" transform="translate(4.5 28.8) rotate(-71.57)" style="fill:#269e48; stroke-width:0px;"/><path d="M22.22,11.09c-.1,0-.17.08-.17.18,0,0,0,0,0,0h0c0,.11.08.18.18.18,0,0,0,0,0,0,.1,0,.17-.09.17-.18,0,0,0,0,0,0,0-.1-.08-.18-.18-.17Z" style="fill:#f1f2f2; stroke-width:0px;"/><polygon points="14.87 25.29 14.87 27.9 14.02 29.13 14.36 29.13 15 28.57 15.16 29.4 15.49 29.4 15.65 28.57 16.29 29.13 16.63 29.13 15.77 27.9 15.77 25.29 14.87 25.29" style="fill:#269e48; stroke-width:0px;"/><path d="M15.77,25.12h-.9c-.1,0-.18.08-.18.18v2.55l-.82,1.18c-.04.05-.04.13-.01.18.03.06.09.1.16.1h.33s.08-.02.12-.04l.41-.36.1.52c.02.08.09.15.17.15h.33c.09,0,.16-.06.17-.15l.1-.52.41.35s.07.04.12.04h.33s0,0,0,0c.1,0,.18-.08.18-.18,0-.05-.02-.09-.05-.12l-.81-1.16v-2.55c0-.1-.08-.18-.18-.18ZM16.18,28.79l-.41-.36s-.12-.05-.18-.03c-.06.02-.1.07-.12.14l-.13.68h-.04l-.13-.68c-.01-.06-.06-.11-.12-.14-.06-.02-.13,0-.18.03l-.41.36.55-.79s.03-.07.03-.1v-2.43h.54v2.43s.01.07.03.1l.55.79Z" style="fill:#f1f2f2; stroke-width:0px;"/><polygon points="18.23 25.29 18.23 27.9 17.37 29.13 17.71 29.13 18.35 28.57 18.51 29.4 18.84 29.4 19 28.57 19.64 29.13 19.98 29.13 19.13 27.9 19.13 25.29 18.23 25.29" style="fill:#269e48; stroke-width:0px;"/><path d="M19.13,25.12h-.9c-.1,0-.18.08-.18.18v2.55l-.82,1.18c-.04.05-.04.13-.01.18.03.06.09.1.16.1h.33s.08-.02.12-.04l.41-.36.1.52c.02.08.09.15.17.15h.33c.09,0,.16-.06.17-.15l.1-.52.41.35s.07.04.12.04h.33s0,0,0,0c.1,0,.18-.08.18-.18,0-.05-.02-.09-.05-.12l-.81-1.16v-2.55c0-.1-.08-.18-.18-.18ZM19.53,28.79l-.41-.36s-.11-.05-.18-.03c-.06.02-.1.07-.12.14l-.13.68h-.04l-.13-.68c-.01-.06-.06-.11-.12-.14-.06-.02-.13,0-.18.03l-.41.36.55-.79s.03-.07.03-.1v-2.43h.54v2.43s.01.07.03.1l.55.79Z" style="fill:#f1f2f2; stroke-width:0px;"/><polygon points="22.23 11.28 22.23 11.27 22.23 11.28 22.23 11.28" style="fill:#269e48; stroke-width:0px;"/><path d="M22.05,11.24s0,.08.01.12c0,0,0,0,0,0,.03.06.09.09.16.09.02,0,.03,0,.05,0,.08-.02.14-.1.13-.18,0-.09-.07-.16-.16-.17-.09,0-.17.05-.19.14Z" style="fill:#f1f2f2; stroke-width:0px;"/><polygon points="11.77 11.28 11.77 11.27 11.77 11.28 11.77 11.28" style="fill:#269e48; stroke-width:0px;"/><path d="M11.93,11.36l.03-.06-.33-1.46-.06,2.24.36-.72ZM11.75,11.27l-.15-.07.15.07Z" style="fill:#f1f2f2; stroke-width:0px;"/><path d="M11.58,23.66c.35.95,1.26,1.63,2.32,1.63h6.19c1.06,0,1.97-.68,2.32-1.63-.96-.93-2.64-2.92-2.64-5.39,0-1.65.56-3.32,1.14-4.61-.59.56-1.34,1.07-2.01,1.48-.05-.11-.1-.23-.21-.31,0,.18-.1.35-.17.53-.06-.13-.11-.26-.11-.39-.19.19-.21.43-.31.63,0,0,0,0,0,0-.04-.14-.1-.28-.1-.42-.12.18-.19.41-.25.61,0,0,0,0-.01,0-.03-.21-.06-.43-.16-.62-.13.38-.36.64-.51.95-.03.02-.05.02-.05.02,0,0-.02,0-.05-.02-.15-.3-.39-.57-.51-.95-.09.19-.13.41-.16.62,0,0,0,0-.01,0-.06-.2-.13-.43-.25-.61,0,.14-.06.28-.1.42,0,0,0,0,0,0-.1-.2-.12-.44-.31-.63,0,.13-.05.26-.11.39-.07-.18-.17-.35-.17-.53-.12.08-.17.2-.21.31-.68-.41-1.42-.92-2.01-1.48.58,1.3,1.14,2.96,1.14,4.61,0,2.48-1.68,4.46-2.64,5.39Z" style="fill:#269e48; stroke-width:0px;"/><path d="M11.46,23.54c-.05.05-.07.12-.04.19.39,1.04,1.39,1.75,2.49,1.75h6.19c1.1,0,2.1-.7,2.49-1.75.02-.07,0-.14-.04-.19-.97-.94-2.59-2.87-2.59-5.27,0-1.35.38-2.88,1.12-4.54.03-.08,0-.17-.06-.22-.07-.05-.16-.04-.23.02-.47.44-1.08.9-1.82,1.35-.04-.07-.1-.15-.19-.2-.05-.04-.12-.04-.18,0-.06.03-.09.09-.09.15-.01,0-.02-.01-.03-.02-.07-.03-.14-.01-.19.04-.07.07-.12.14-.16.22-.02-.03-.05-.04-.08-.05-.08-.02-.16,0-.2.07-.03.04-.05.08-.07.12-.01-.03-.03-.07-.04-.1-.03-.06-.1-.1-.17-.1-.07,0-.13.05-.16.12-.07.21-.19.39-.3.57-.03.05-.07.1-.1.16-.03-.05-.07-.11-.1-.16-.11-.17-.22-.35-.3-.57-.02-.07-.08-.12-.16-.12-.07,0-.14.03-.17.1-.02.03-.03.07-.04.1-.02-.04-.04-.08-.07-.12-.04-.07-.12-.09-.2-.07-.03.01-.06.03-.08.05-.04-.08-.09-.15-.16-.22-.05-.05-.13-.07-.19-.04-.01,0-.02.01-.03.02,0-.06-.04-.12-.09-.15-.06-.03-.13-.03-.18,0-.09.06-.15.13-.19.2-.74-.46-1.35-.91-1.82-1.35-.06-.06-.16-.06-.23-.02-.07.05-.09.14-.06.22.74,1.66,1.12,3.19,1.12,4.54,0,2.39-1.62,4.33-2.59,5.27ZM14.4,18.27c0-1.21-.29-2.55-.86-3.98.42.33.91.67,1.46,1,.04.03.1.03.15.02.03-.01.06-.03.09-.06.01.03.02.05.03.08.02.03.03.07.04.1.03.07.09.11.16.11h0c.07,0,.13-.04.16-.1,0,0,0,0,0,.01.03.08.05.16.09.24.02.03.05.06.08.08.05.03.1.03.15.01.03-.01.06-.03.08-.06.01.03.02.07.03.1v.04s.07.09.11.11c.05.03.11.03.16,0,.05-.03.09-.08.09-.13v-.02s.01-.08.02-.12c.04.07.08.13.12.2.07.11.14.22.19.32.02.04.05.07.09.08l.05.02s.1.02.15,0l.05-.02s.07-.05.09-.08c.05-.11.12-.21.19-.32.04-.06.08-.13.12-.2,0,.04.01.08.02.12v.02c.01.06.05.1.1.13.05.03.12.02.17,0,.04-.02.08-.06.09-.11v-.04s.03-.07.04-.1c.02.03.05.05.08.06.05.02.11.02.16-.01.03-.02.06-.04.07-.08.04-.08.07-.16.09-.24,0,0,0,0,0-.01.03.06.09.1.16.1h0c.07,0,.14-.04.16-.11.01-.03.03-.07.04-.1.01-.03.02-.05.03-.08.02.03.05.05.09.06.05.02.1.01.15-.02.55-.33,1.04-.67,1.46-1-.57,1.44-.86,2.77-.86,3.98,0,2.46,1.6,4.43,2.61,5.44-.36.85-1.2,1.41-2.11,1.41h-6.19c-.91,0-1.75-.56-2.11-1.41,1.01-1.01,2.61-2.98,2.61-5.44Z" style="fill:#f1f2f2; stroke-width:0px;"/><path d="M17,4.67s-3.35-.63-4.65,1.97c-.81,1.63-.87,3.33-.58,4.64,0,0,0,0,0,0,0,0,0-.01,0-.02,0,0,.67.97,1.31,2.4.59.56,1.34,1.07,2.01,1.48.05-.11.1-.23.21-.31,0,.18.1.35.17.53.06-.13.11-.26.11-.39.19.19.21.43.31.63,0,0,0,0,0,0,.04-.14.1-.28.1-.42.12.18.19.41.25.61,0,0,0,0,.01,0,.03-.21.06-.43.16-.62.13.38.36.64.51.95.03.02.05.02.05.02,0,0,.02,0,.05-.02.15-.3.39-.57.51-.95.09.19.13.41.16.62,0,0,0,0,.01,0,.06-.2.13-.43.25-.61,0,.14.06.28.1.42,0,0,0,0,0,0,.1-.2.12-.44.31-.63,0,.13.05.26.11.39.07-.18.17-.35.17-.53.11.08.17.2.21.31.68-.41,1.42-.92,2.01-1.48.64-1.42,1.31-2.4,1.31-2.4,0,0,0,.01,0,.02,0,0,0,0,0,0,.28-1.31.23-3.01-.58-4.64-1.3-2.59-4.65-1.97-4.65-1.97ZM21.78,9.88c0,4.04-4.78,4.13-4.78,4.13,0,0-4.78-.08-4.78-4.13s3-4.99,4.78-3.41c1.78-1.57,4.78-.63,4.78,3.41Z" style="fill:#269e48; stroke-width:0px;"/><path d="M18.83,5.57c-.65,0-1.29.24-1.83.67-.54-.43-1.18-.67-1.83-.67-1.56,0-3.13,1.33-3.13,4.31,0,4.17,4.91,4.3,4.96,4.3.05,0,4.96-.13,4.96-4.3,0-2.98-1.57-4.31-3.13-4.31ZM17,13.83s-1.17-.03-2.32-.53c-1.52-.67-2.28-1.82-2.28-3.42,0-2.73,1.39-3.96,2.77-3.96.61,0,1.22.24,1.71.68.07.06.17.06.24,0,.49-.44,1.1-.68,1.71-.68,1.38,0,2.77,1.22,2.77,3.96,0,3.82-4.42,3.94-4.6,3.95Z" style="fill:#f1f2f2; stroke-width:0px;"/><path d="M17.88,4.42c-.45,0-.78.05-.88.06-.1-.02-.43-.06-.88-.06-1.07,0-3,.28-3.93,2.13-.99,1.98-.8,3.83-.6,4.76,0,.04.03.08.07.1.15.22.71,1.11,1.26,2.32,0,.02.02.04.04.06.52.49,1.21,1,2.04,1.5.04.03.1.03.15.02.03-.01.06-.03.09-.06.01.03.02.05.03.08.02.03.03.07.04.1.03.07.09.11.16.11h0c.07,0,.13-.04.16-.1,0,0,0,0,0,.01.03.08.05.16.09.24.02.03.05.06.08.08.05.03.1.03.15,0,.03-.01.06-.03.08-.06.01.03.02.07.03.1v.04s.07.09.11.11c.05.03.11.03.16,0,.05-.03.09-.08.09-.13v-.02s.01-.08.02-.12c.04.07.08.13.12.2.07.11.14.22.19.32.02.04.05.07.09.08l.05.02s.05.02.07.02.05,0,.07-.02l.05-.02s.07-.05.09-.08c.05-.11.12-.21.19-.32.04-.06.08-.13.12-.2,0,.04.01.08.02.12v.02c.01.06.05.1.1.13.05.03.12.02.17,0,.04-.02.08-.06.09-.11v-.04s.03-.07.04-.1c.02.03.05.05.08.06.05.02.11.01.16-.01.03-.02.06-.04.07-.08.04-.08.07-.16.09-.24,0,0,0,0,0-.01.03.06.09.1.16.1h0c.07,0,.14-.04.16-.11.01-.03.03-.07.04-.1.01-.03.02-.05.03-.08.02.03.05.05.09.06.05.02.1.01.15-.02.83-.5,1.52-1.01,2.04-1.5.02-.02.03-.04.04-.06.54-1.2,1.1-2.08,1.25-2.31.04-.03.07-.07.08-.11.2-.93.39-2.78-.6-4.75-.93-1.85-2.86-2.13-3.93-2.13ZM22.07,11.17c-.06.09-.69,1.03-1.3,2.39-.47.43-1.07.88-1.79,1.33-.04-.07-.1-.15-.19-.2-.05-.04-.12-.04-.18,0-.06.03-.09.09-.09.15-.01,0-.02-.01-.03-.02-.07-.03-.14-.01-.19.04-.07.07-.12.14-.16.22-.02-.03-.05-.04-.08-.05-.08-.02-.16,0-.2.07-.03.04-.05.08-.07.12-.01-.03-.03-.07-.04-.1-.03-.06-.1-.1-.17-.1-.07,0-.13.05-.16.12-.07.21-.19.39-.3.57-.03.05-.07.1-.1.16-.03-.05-.07-.11-.1-.16-.11-.17-.22-.35-.3-.57-.02-.07-.08-.12-.16-.12,0,0,0,0-.01,0-.07,0-.13.04-.16.1-.02.03-.03.07-.04.1-.02-.04-.04-.08-.07-.12-.04-.07-.12-.09-.2-.07-.03.01-.06.03-.08.05-.04-.08-.09-.15-.16-.22-.05-.05-.13-.07-.19-.04-.01,0-.02.01-.03.02,0-.06-.04-.12-.09-.15-.06-.03-.13-.03-.18,0-.09.06-.15.13-.19.2-.72-.45-1.33-.89-1.79-1.33-.61-1.36-1.24-2.29-1.3-2.39-.19-.9-.34-2.62.58-4.45.84-1.68,2.62-1.93,3.61-1.93.5,0,.85.06.85.06.02,0,.04,0,.07,0,0,0,.35-.06.85-.06.99,0,2.77.25,3.61,1.93.92,1.83.77,3.55.58,4.45Z" style="fill:#f1f2f2; stroke-width:0px;"/><path d="M17,6.47c-1.78-1.57-4.78-.63-4.78,3.41s4.78,4.13,4.78,4.13c0,0,4.78-.08,4.78-4.13s-3-4.99-4.78-3.41ZM15,9.81c-.55,0-1-.45-1-1s.45-1,1-1,1,.45,1,1-.45,1-1,1ZM17,12.1l-.82-1.6.82-.85.82.85-.82,1.6ZM20,8.81c0,.55-.45,1-1,1s-1-.45-1-1,.45-1,1-1,1,.45,1,1Z" style="fill:#269e48; stroke-width:0px;"/><path d="M15,7.63c-.65,0-1.18.53-1.18,1.18s.53,1.18,1.18,1.18,1.18-.53,1.18-1.18-.53-1.18-1.18-1.18ZM15,9.63c-.45,0-.82-.37-.82-.82s.37-.82.82-.82.82.37.82.82-.37.82-.82.82Z" style="fill:#f1f2f2; stroke-width:0px;"/><path d="M17.13,9.52c-.07-.07-.19-.07-.26,0l-.82.85c-.05.05-.07.14-.03.21l.82,1.6c.03.06.09.1.16.1s.13-.04.16-.1l.82-1.6c.03-.07.02-.15-.03-.21l-.82-.85ZM17,11.71l-.61-1.18.61-.63.61.63-.61,1.18Z" style="fill:#f1f2f2; stroke-width:0px;"/><path d="M17.82,8.81c0,.65.53,1.18,1.18,1.18s1.18-.53,1.18-1.18-.53-1.18-1.18-1.18-1.18.53-1.18,1.18ZM19,7.99c.45,0,.82.37.82.82s-.37.82-.82.82-.82-.37-.82-.82.37-.82.82-.82Z" style="fill:#f1f2f2; stroke-width:0px;"/><path d="M17,6.23c-.54-.43-1.18-.67-1.83-.67-1.56,0-3.13,1.33-3.13,4.31,0,4.17,4.91,4.3,4.96,4.3h0s4.96-.13,4.96-4.3c0-2.98-1.57-4.31-3.13-4.31-.65,0-1.29.24-1.83.67ZM21.6,9.88c0,3.8-4.37,3.94-4.6,3.95-.23,0-4.6-.15-4.6-3.95,0-2.73,1.39-3.96,2.77-3.96.61,0,1.22.24,1.71.68.07.06.17.06.24,0,.49-.44,1.1-.68,1.71-.68,1.38,0,2.77,1.22,2.77,3.96Z" style="fill:#f1f2f2; stroke-width:0px;"/><polygon points="17 12.1 17.82 10.49 17 9.64 16.18 10.49 17 12.1" style="fill:#269e48; stroke-width:0px;"/><path d="M17,9.47s-.09.02-.13.05l-.82.85c-.05.05-.07.14-.03.21l.82,1.6c.03.06.09.1.16.1s.13-.04.16-.1l.82-1.6c.03-.07.02-.15-.03-.21l-.82-.85s-.08-.05-.13-.05ZM17,11.71l-.61-1.18.61-.63.61.63-.61,1.18Z" style="fill:#f1f2f2; stroke-width:0px;"/><path d="M22.23,11.28s0-.01,0-.02c0,0-.67.97-1.31,2.4-.58,1.3-1.14,2.96-1.14,4.61,0,2.48,1.68,4.46,2.64,5.39.38.37.64.57.64.57l.31-1.13c1.08-3.95.67-8.15-1.14-11.82h0s0,0,0,0Z" style="fill:#269e48; stroke-width:0px;"/><path d="M22.23,11.08c-.06,0-.12.02-.16.08-.03.04-.69,1-1.32,2.43-.76,1.7-1.15,3.28-1.15,4.68,0,2.53,1.69,4.54,2.69,5.52.38.37.65.58.66.58.03.02.07.04.11.04.02,0,.04,0,.06,0,.06-.02.1-.06.11-.12l.31-1.13c1.09-3.99.68-8.24-1.15-11.96,0,0,0-.01,0-.01-.03-.06-.08-.09-.15-.1ZM23.2,23.06l-.24.87c-.11-.09-.25-.22-.42-.39-.97-.94-2.59-2.87-2.59-5.27,0-1.35.38-2.88,1.12-4.54.43-.97.88-1.73,1.12-2.11,1.68,3.57,2.04,7.62,1,11.43Z" style="fill:#f1f2f2; stroke-width:0px;"/><path d="M11.77,11.28s0,0,0,0c-1.81,3.67-2.21,7.87-1.14,11.82l.31,1.13s.26-.2.64-.57c.96-.93,2.64-2.92,2.64-5.39,0-1.65-.56-3.32-1.14-4.61-.64-1.42-1.31-2.4-1.31-2.4,0,0,0,.01,0,.02Z" style="fill:#269e48; stroke-width:0px;"/><path d="M11.61,11.2c-1.83,3.71-2.24,7.96-1.15,11.95l.31,1.13c.02.06.06.1.11.12.02,0,.04,0,.06,0,.04,0,.08-.01.11-.04.01,0,.28-.21.66-.58,1.01-.98,2.69-3,2.69-5.52,0-1.4-.39-2.98-1.15-4.68-.64-1.42-1.3-2.39-1.32-2.43-.04-.05-.1-.08-.16-.08-.06,0-.12.04-.15.1l.15.08h0s-.16-.06-.16-.06ZM11.8,11.62c.24.38.69,1.14,1.12,2.11.74,1.66,1.12,3.19,1.12,4.54,0,2.39-1.62,4.33-2.59,5.27-.17.16-.31.29-.42.39l-.24-.87c-1.04-3.81-.68-7.86,1-11.43Z" style="fill:#f1f2f2; stroke-width:0px;"/><path d="M14,8.81c0,.55.45,1,1,1s1-.45,1-1-.45-1-1-1-1,.45-1,1ZM15.6,8.81c0,.33-.27.6-.6.6s-.6-.27-.6-.6.27-.6.6-.6.6.27.6.6Z" style="fill:#269e48; stroke-width:0px;"/><path d="M15,7.63c-.65,0-1.18.53-1.18,1.18s.53,1.18,1.18,1.18,1.18-.53,1.18-1.18-.53-1.18-1.18-1.18ZM15,9.63c-.45,0-.82-.37-.82-.82s.37-.82.82-.82.82.37.82.82-.37.82-.82.82Z" style="fill:#f1f2f2; stroke-width:0px;"/><path d="M15,8.03c-.43,0-.78.35-.78.78s.35.78.78.78.78-.35.78-.78-.35-.78-.78-.78ZM15,9.23c-.23,0-.42-.19-.42-.42s.19-.42.42-.42.42.19.42.42-.19.42-.42.42Z" style="fill:#f1f2f2; stroke-width:0px;"/><path d="M14.4,8.81c0,.33.27.6.6.6s.6-.27.6-.6-.27-.6-.6-.6-.6.27-.6.6Z" style="fill:#269e48; stroke-width:0px;"/><path d="M14.22,8.81c0,.43.35.78.78.78s.78-.35.78-.78-.35-.78-.78-.78-.78.35-.78.78ZM15.42,8.81c0,.23-.19.42-.42.42s-.42-.19-.42-.42.19-.42.42-.42.42.19.42.42Z" style="fill:#f1f2f2; stroke-width:0px;"/><path d="M18,8.81c0,.55.45,1,1,1s1-.45,1-1-.45-1-1-1-1,.45-1,1ZM19.6,8.81c0,.33-.27.6-.6.6s-.6-.27-.6-.6.27-.6.6-.6.6.27.6.6Z" style="fill:#269e48; stroke-width:0px;"/><path d="M18.23,8.81c0,.43.35.78.78.78s.78-.35.78-.78-.35-.78-.78-.78-.78.35-.78.78ZM19.42,8.81c0,.23-.19.42-.42.42s-.42-.19-.42-.42.19-.42.42-.42.42.19.42.42Z" style="fill:#f1f2f2; stroke-width:0px;"/><path d="M17.82,8.81c0,.65.53,1.18,1.18,1.18s1.18-.53,1.18-1.18-.53-1.18-1.18-1.18-1.18.53-1.18,1.18ZM19.83,8.81c0,.45-.37.82-.82.82s-.82-.37-.82-.82.37-.82.82-.82.82.37.82.82Z" style="fill:#f1f2f2; stroke-width:0px;"/><path d="M18.41,8.81c0,.33.27.6.6.6s.6-.27.6-.6-.27-.6-.6-.6-.6.27-.6.6Z" style="fill:#269e48; stroke-width:0px;"/><path d="M18.23,8.81c0,.43.35.78.78.78s.78-.35.78-.78-.35-.78-.78-.78-.78.35-.78.78ZM19.42,8.81c0,.23-.19.42-.42.42s-.42-.19-.42-.42.19-.42.42-.42.42.19.42.42Z" style="fill:#f1f2f2; stroke-width:0px;"/></g></svg>