<?xml version="1.0" encoding="UTF-8"?><svg id="Layer_2" xmlns="http://www.w3.org/2000/svg" viewBox="0 0 34 34"><g id="BG"><path d="M17,0h0c9.35,0,17,7.65,17,17h0c0,9.35-7.65,17-17,17h0C7.65,34,0,26.35,0,17h0C0,7.65,7.65,0,17,0Z" style="fill:#85ca9b; fill-rule:evenodd; stroke-width:0px;"/><path d="M17,2.93c3.88,0,7.4,1.57,9.95,4.12,2.55,2.55,4.12,6.06,4.12,9.95s-1.57,7.4-4.12,9.95c-2.55,2.55-6.06,4.12-9.95,4.12s-7.4-1.57-9.95-4.12c-2.55-2.55-4.12-6.06-4.12-9.95s1.57-7.4,4.12-9.95c2.55-2.55,6.06-4.12,9.95-4.12h0ZM26.29,7.71c-2.38-2.38-5.66-3.85-9.29-3.85s-6.91,1.47-9.29,3.85c-2.38,2.38-3.85,5.66-3.85,9.29s1.47,6.91,3.85,9.29c2.38,2.38,5.66,3.85,9.29,3.85s6.91-1.47,9.29-3.85c2.38-2.38,3.85-5.66,3.85-9.29s-1.47-6.91-3.85-9.29Z" style="fill:#fff; stroke-width:0px;"/><path d="M23.95,10.07h0c.34.34.51.78.51,1.22s-.17.89-.51,1.22h0c-2.68,2.68-4.89,4.81-6.7,6.48-2.02,1.86-3.54,3.16-4.66,4.01-1.05.8-1.84,1.26-2.31,1.37-.27.07-.47.04-.6-.09-.14-.13-.17-.33-.11-.6.12-.46.57-1.22,1.39-2.29.85-1.1,2.15-2.61,4.02-4.61,1.68-1.81,3.83-4.03,6.52-6.72.34-.34.78-.51,1.22-.51s.89.17,1.22.51h0ZM23.63,10.4h0c-.25-.25-.57-.37-.9-.37s-.65.12-.9.37c-2.7,2.7-4.84,4.91-6.51,6.71-1.86,2-3.14,3.49-3.99,4.58-.79,1.02-1.21,1.72-1.31,2.12-.02.1-.03.15-.03.15.01.01.07,0,.17-.02.41-.1,1.14-.53,2.14-1.29,1.11-.84,2.62-2.13,4.63-3.99,1.8-1.66,4-3.79,6.69-6.47h0c.25-.25.37-.57.37-.9s-.12-.65-.37-.9Z" style="fill:#fff; stroke-width:0px;"/><path d="M11.75,20.96c-.09-.09-.24-.09-.33,0-.09.09-.09.24,0,.33l1.29,1.29c.09.09.24.09.33,0,.09-.09.09-.24,0-.33l-1.29-1.29Z" style="fill:#fff; stroke-width:0px;"/><path d="M21.71,10.38c-.09-.09-.24-.09-.33,0-.09.09-.09.24,0,.33l2.03,2.03c.09.09.24.09.33,0,.09-.09.09-.24,0-.33l-2.03-2.03Z" style="fill:#fff; stroke-width:0px;"/><path d="M13.44,15.87c-.12-.03-.25.05-.28.17-.03.12.05.25.17.28,0,0,1.67.44,2.29-1.27h0s0,0,0,0c0,0,0,0,0,0,.14-.33,2.3-5.21,5.78-4.36.12.03.25-.05.28-.17.03-.12-.05-.25-.17-.28-3.85-.94-6.16,4.27-6.31,4.63,0,0,0,.02-.01.03h0c-.47,1.31-1.74.98-1.74.97Z" style="fill:#fff; stroke-width:0px;"/><path d="M19.19,12.81c-.09-.09-.24-.09-.33,0-.09.09-.09.24,0,.33l2.02,2.02c.09.09.24.09.33,0,.09-.09.09-.24,0-.33l-2.02-2.02Z" style="fill:#fff; stroke-width:0px;"/><path d="M18.25,13.76c-.09-.09-.24-.09-.33,0-.09.09-.09.24,0,.33l2.02,2.02c.09.09.24.09.33,0,.09-.09.09-.24,0-.33l-2.02-2.02Z" style="fill:#fff; stroke-width:0px;"/><path d="M17.33,14.73c-.09-.09-.24-.09-.33,0-.09.09-.09.24,0,.33l1.88,1.88c.09.09.24.09.33,0,.09-.09.09-.24,0-.33l-1.88-1.88Z" style="fill:#fff; stroke-width:0px;"/></g></svg>